<?xml version="1.0" encoding="UTF-8"?>
<svg id="Calque_2" data-name="Calque 2" xmlns="http://www.w3.org/2000/svg" viewBox="0 0 94.51 127.15">
  <defs>
    <style>
      .cls-1 {
        fill: #333;
      }
    </style>
  </defs>
  <g id="Layer_1" data-name="Layer 1">
    <g>
      <g>
        <path class="cls-1" d="m28.06,127.15c-.56,0-.8-.14-1.08-.31-.46-.27-.82-.75-.95-1.28-.14-.47-1.19-3.24-2.13-5.67-.18-.46-.18-.98,0-1.44l2.27-5.93c.08-.21.19-.4.34-.57l3.73-4.42c.45-.54,1.15-.8,1.85-.68l5.03.81c.45.07.86.3,1.16.63l5.12,5.65-2.96,2.69-4.65-5.13-3.22-.52-2.79,3.3-1.87,4.89c.67,1.75,1.12,2.93,1.42,3.73,1.14-.29,2.83-.78,4.37-1.26l4.42-4.49,2.85,2.81-4.77,4.85c-.23.23-.51.4-.82.5-4.51,1.43-6.37,1.84-7.32,1.84Zm1.87-2.47s0,0,0,.01c0,0,0,0,0-.01Zm-.04-.18c.01.05.02.09.03.12,0-.04-.02-.08-.03-.12Z"/>
        <path class="cls-1" d="m22.91,125.73l-10.48-.47c-.97-.04-1.78-.78-1.9-1.75l-.59-4.77c-.07-.56.1-1.13.47-1.55l2.61-3.02,3.08-4.02c.62-.8,1.74-1.02,2.61-.5l6.36,3.77-2.04,3.44-4.83-2.86-2.04,2.66s-.05.06-.07.09l-2.07,2.39.27,2.21,8.79.39-.18,4Z"/>
        <path class="cls-1" d="m16.86,109.12l-3.96-.59,1-6.69c.14-.91.87-1.6,1.78-1.69l5.94-.59c.1,0,.2-.01.3,0l8.12.41c.46.02.89.2,1.23.51l2.83,2.53-2.67,2.98-2.3-2.06-7.27-.37-4.24.42-.77,5.15Z"/>
        <path class="cls-1" d="m42.63,107.3l-3.88-.97,1.37-5.49-3.27-1.7s-.06-.03-.09-.05l-4.89-2.88-4.84,3.94-2.53-3.1,5.92-4.82c.65-.53,1.56-.6,2.28-.17l6.05,3.56,4.63,2.41c.82.43,1.24,1.36,1.02,2.26l-1.76,7.02Z"/>
        <path class="cls-1" d="m4.51,116.24l-3.48-1.96,2.44-4.33c.51-.9,1.63-1.27,2.57-.84l5.03,2.3-1.66,3.64-3.36-1.53-1.54,2.73Z"/>
        <path class="cls-1" d="m8.06,125.73l-4.17-3.51-1.09,1.07-2.8-2.85,2.38-2.34c.74-.72,1.9-.77,2.69-.1l5.56,4.68-2.57,3.06Z"/>
        <g>
          <path class="cls-1" d="m67.72,89.97l-2.93-2.72c1.47-1.59,2.34-3.59,2.57-5.95.53-5.34-.46-9.94-1.46-12.97-1.08,1.3-2.15,2-2.23,2.05-.64.41-1.46.42-2.11.03-.65-.39-1.02-1.12-.96-1.88.34-4-2.87-8.52-5.98-12.89l-.35-.49c-2.6-3.66-3.01-9.97-2.99-13.76-8.74,3.98-9.8,13.12-9.81,13.22-.1.98-.91,1.74-1.89,1.79-1.01.04-1.86-.63-2.06-1.6-.6-2.92-1.83-4.91-3.03-6.22.08,6-2.12,8.98-4.43,12.11-2,2.71-4.28,5.79-5.6,11.74-1.25,5.64-.34,10.76,2.71,15.24l-3.3,2.25c-2.54-3.73-5.18-9.94-3.31-18.36,1.51-6.78,4.16-10.37,6.29-13.25,2.7-3.66,4.49-6.08,3.28-13.56-.11-.7.15-1.41.7-1.86.55-.45,1.29-.58,1.96-.34.21.07,3.83,1.44,6.44,5.7,1.88-4.2,5.75-9.45,13.62-11.68.63-.18,1.31-.04,1.81.38.51.42.78,1.05.73,1.7-.22,2.79-.26,10.79,2.15,14.18l.35.49c2.32,3.26,4.85,6.82,6.05,10.51.07-.21.13-.43.17-.66.15-.83.8-1.48,1.63-1.62.83-.14,1.66.25,2.08.99.19.33,4.62,8.31,3.54,19.18-.33,3.25-1.54,6.03-3.62,8.27Z"/>
          <path class="cls-1" d="m32.22,72.56l-3.9-.9c2.1-9.15,7.56-11.35,7.79-11.44l1.44,3.73-.72-1.87.75,1.85c-.15.07-3.77,1.69-5.37,8.62Z"/>
        </g>
        <path class="cls-1" d="m60.26,101.22l-4.51-5.35-13.12,1.22-.37-3.98,14.16-1.32c.65-.06,1.29.2,1.72.7l5.18,6.15-3.06,2.58Z"/>
        <path class="cls-1" d="m45.72,124.88c-.38,0-.77-.11-1.1-.33-.56-.37-.9-1-.9-1.67v-6.71h4v3.66l4.21-1.83,2.96-6.55-4.15-3.68-4.34,3.29-2.41-3.19,5.65-4.28c.76-.58,1.82-.53,2.53.1l6.47,5.75c.66.58.86,1.52.5,2.32l-3.88,8.6c-.2.45-.57.81-1.02,1.01l-7.71,3.36c-.26.11-.53.17-.8.17Z"/>
        <path class="cls-1" d="m60.25,120.24l-.93-3.89,8.36-2s.1-.02.14-.03l4.68-.76v-3.61c-1.54-.71-4.84-2.08-8.01-3.35l-3.78,1.98-1.86-3.54,4.59-2.41c.52-.27,1.12-.3,1.67-.09,10.3,4.09,10.6,4.5,10.99,5.02.26.35.4.76.4,1.19v6.5c0,.98-.71,1.82-1.68,1.97l-6.28,1.02-8.29,1.98Z"/>
        <path class="cls-1" d="m65.56,125.73c-.43,0-.86-.14-1.21-.41l-3.3-2.5,2.42-3.19,2.63,1.99,10.82-1.61,1.46-2.47-1.97-1.4,2.31-3.26,3.47,2.46c.85.6,1.09,1.75.56,2.65l-2.88,4.88c-.31.52-.83.87-1.43.96l-12.6,1.87c-.1.01-.2.02-.29.02Z"/>
        <path class="cls-1" d="m82.76,123.85l-.49-3.97,2.79-.35,1.21-4.46-.33-3.84-8.57-2.5,1.12-3.84,9.89,2.89c.79.23,1.36.93,1.43,1.75l.47,5.56c.02.23,0,.47-.06.69l-1.65,6.1c-.21.78-.88,1.36-1.68,1.46l-4.12.51Z"/>
        <path class="cls-1" d="m80.75,103.95l-.9-1.65h-9.82v-4h11c.73,0,1.4.4,1.75,1.04l1.47,2.69-3.51,1.92Z"/>
      </g>
      <path class="cls-1" d="m17.43,60.28c-1.37-2.36-2.09-5.06-2.09-7.8,0-8.6,6.99-15.59,15.59-15.59v4c-6.39,0-11.59,5.2-11.59,11.59,0,2.04.54,4.04,1.55,5.8l-3.46,2Z"/>
      <path class="cls-1" d="m71.59,62.1l-2.75-2.9c3.01-2.86,4.67-6.72,4.67-10.88,0-8.27-6.73-14.99-14.99-14.99v-4c10.47,0,18.99,8.52,18.99,18.99,0,5.26-2.1,10.16-5.92,13.78Z"/>
      <path class="cls-1" d="m25.85,40.96c-4.98-4.21-7.83-10.35-7.83-16.86,0-12.17,9.9-22.07,22.07-22.07,5.89,0,11.43,2.29,15.6,6.46,1.88,1.88,3.4,4.06,4.5,6.48l-3.64,1.66c-.9-1.98-2.14-3.76-3.68-5.3-3.41-3.41-7.95-5.29-12.77-5.29-9.96,0-18.07,8.11-18.07,18.07,0,5.33,2.34,10.37,6.42,13.81l-2.58,3.06Z"/>
      <path class="cls-1" d="m75.52,46.68l-.77-3.92c9.13-1.8,15.76-9.87,15.76-19.19,0-10.79-8.78-19.56-19.56-19.56-5.88,0-11.4,2.61-15.13,7.17l-3.09-2.54C57.22,3.15,63.86,0,70.95,0c12.99,0,23.56,10.57,23.56,23.56,0,11.23-7.99,20.95-18.99,23.12Z"/>
    </g>
  </g>
</svg>