<?xml version="1.0" encoding="UTF-8"?>
<svg id="Calque_2" data-name="Calque 2" xmlns="http://www.w3.org/2000/svg" viewBox="0 0 125 112.08">
  <defs>
    <style>
      .cls-1 {
        fill: #333;
      }
    </style>
  </defs>
  <g id="Layer_1" data-name="Layer 1">
    <g>
      <rect class="cls-1" y="108.08" width="125" height="4"/>
      <path class="cls-1" d="m5.61,102.58l-3.82-1.19,5.07-16.34c.12-.39.36-.74.69-.99l15.32-11.78,8.92-11.88c.05-.06.1-.12.15-.18l9.66-10.19c.52-.55,1.31-.76,2.04-.54,6.41,1.96,13.59,4.05,15.33,4.39,1.44-.69,6.3-4.16,10.28-7.2.69-.53,1.64-.55,2.35-.06l18.98,13.12c.13.09.25.19.35.31l12.06,13.4,13.47,5.6c.57.24,1,.73,1.17,1.33l5.63,21.08-3.87,1.03-5.38-20.13-12.98-5.4c-.27-.11-.52-.29-.72-.51l-12.21-13.56-17.6-12.16c-9.49,7.18-10.76,7.18-11.38,7.18-1.26,0-8.86-2.23-15.48-4.25l-8.72,9.2-9.01,12.01c-.11.14-.24.27-.38.38l-15.03,11.56-4.88,15.73Z"/>
      <path class="cls-1" d="m26.44,93.9l-3.57-1.8,7.36-14.57c.13-.25.3-.47.52-.65l14.67-12.01,2.53,3.1-14.34,11.74-7.17,14.19Z"/>
      <rect class="cls-1" x="84.88" y="68.21" width="4" height="15.71" transform="translate(-27.92 63.67) rotate(-35.04)"/>
      <path class="cls-1" d="m105.28,31.33c-.53,0-1.05-.22-1.42-.59-.09-.09-.18-.19-.25-.3-.07-.11-.13-.23-.18-.35-.05-.12-.09-.24-.12-.37-.02-.13-.03-.26-.03-.39,0-.53.21-1.05.58-1.42.46-.46,1.16-.67,1.81-.54.12.02.25.06.37.11.12.05.24.11.34.18.11.08.22.16.31.25.37.37.59.89.59,1.42,0,.13-.02.26-.04.39-.03.13-.07.25-.12.37-.05.12-.11.24-.18.35-.08.11-.16.21-.25.3-.09.09-.2.18-.31.25-.1.07-.22.13-.34.18-.12.05-.25.09-.37.12-.13.02-.26.04-.39.04Z"/>
      <path class="cls-1" d="m77.8,6.37c-.14,0-.27-.01-.4-.04-.12-.03-.25-.06-.37-.11-.12-.05-.24-.12-.35-.19-.1-.07-.21-.15-.3-.25-.09-.09-.18-.19-.25-.3-.07-.11-.13-.23-.18-.35-.05-.12-.09-.24-.12-.37-.02-.13-.04-.26-.04-.39s.02-.26.04-.39c.03-.13.07-.26.12-.38s.11-.23.18-.34c.07-.11.16-.21.25-.31.09-.09.2-.17.3-.24.11-.08.23-.14.35-.19.12-.05.25-.08.37-.11.26-.05.53-.05.79,0,.12.03.25.06.37.11.12.05.24.11.35.19.1.07.21.15.3.24.37.38.58.89.58,1.42,0,.13,0,.26-.03.39-.03.13-.07.25-.12.37-.05.12-.11.24-.18.35-.08.11-.16.21-.25.3-.09.1-.2.18-.3.25-.11.07-.23.14-.35.19-.12.05-.25.08-.37.11-.13.03-.26.04-.39.04Z"/>
      <path class="cls-1" d="m105.28,57.7c-.53,0-1.05-.21-1.42-.58-.09-.1-.18-.2-.25-.31-.07-.11-.13-.22-.18-.34-.05-.12-.09-.25-.12-.38-.02-.13-.03-.26-.03-.39s0-.26.03-.39c.03-.13.07-.25.12-.37.05-.12.11-.24.18-.35.07-.11.16-.21.25-.3.74-.74,2.08-.75,2.83,0,.09.09.17.19.25.3.07.11.13.23.18.35.05.12.09.24.12.37.02.13.04.26.04.39s-.02.26-.04.39c-.03.13-.07.26-.12.38-.05.12-.11.23-.18.34-.08.11-.16.21-.25.31-.37.37-.89.58-1.41.58Z"/>
      <path class="cls-1" d="m66.3,42.87c-.14,0-.27-.01-.4-.04-.12-.02-.25-.06-.37-.11-.12-.05-.24-.12-.34-.19-.11-.07-.22-.15-.31-.25-.09-.09-.18-.19-.25-.3-.07-.11-.13-.22-.18-.35-.05-.12-.09-.24-.12-.37-.02-.13-.04-.26-.04-.39,0-.53.22-1.04.59-1.41.09-.1.2-.18.31-.25.1-.08.22-.14.34-.19.12-.05.25-.08.37-.11.26-.05.53-.05.79,0,.12.03.25.06.37.11.12.05.24.11.35.19.1.07.21.15.3.25.37.37.59.88.59,1.41,0,.13-.02.26-.04.39-.03.13-.07.25-.12.37-.05.13-.11.24-.18.35-.07.11-.16.21-.25.3-.09.1-.2.18-.3.25-.11.07-.23.14-.35.19-.12.05-.25.08-.37.11-.13.03-.26.04-.39.04Z"/>
      <path class="cls-1" d="m42.29,23.04c-.52,0-1.04-.22-1.41-.59-.37-.37-.59-.89-.59-1.41,0-.13.02-.27.04-.4.03-.12.07-.25.12-.37.05-.12.11-.24.18-.34.07-.11.16-.22.25-.31.75-.74,2.08-.74,2.83,0,.09.09.17.2.25.31.07.1.13.22.18.34.05.12.09.25.12.37.02.13.04.27.04.4,0,.52-.22,1.04-.59,1.41-.37.37-.89.59-1.42.59Z"/>
      <path class="cls-1" d="m14.13,47.37c-.53,0-1.04-.21-1.42-.59-.37-.37-.58-.88-.58-1.41s.21-1.04.58-1.41c.1-.1.2-.18.31-.25.11-.08.22-.14.34-.19.12-.05.25-.09.38-.11.26-.05.52-.05.78,0,.13.02.25.06.37.11.12.05.24.11.35.19.11.07.21.15.3.25.37.37.59.88.59,1.41s-.22,1.04-.59,1.41c-.37.38-.88.59-1.41.59Z"/>
      <path class="cls-1" d="m16.46,12.7c-.13,0-.26-.01-.39-.04-.13-.02-.25-.06-.37-.11-.12-.05-.24-.11-.35-.18-.11-.08-.21-.16-.3-.25-.09-.1-.18-.2-.25-.31-.07-.11-.14-.22-.19-.34-.05-.12-.08-.25-.11-.38-.03-.13-.04-.26-.04-.39,0-.53.22-1.04.59-1.41.09-.09.19-.18.3-.25.11-.07.23-.13.35-.18.12-.05.24-.09.37-.12.26-.05.53-.05.78,0,.13.03.26.07.38.12.12.05.23.11.34.18.11.07.21.16.3.25.38.37.59.88.59,1.41,0,.13,0,.26-.04.39-.02.13-.06.26-.11.38-.05.12-.11.23-.19.34-.07.11-.15.21-.25.31-.09.09-.19.17-.3.25-.11.07-.22.13-.34.18-.12.05-.25.09-.38.11-.13.03-.26.04-.39.04Z"/>
      <path class="cls-1" d="m51.72,35.48l-2.35-3.24s3.6-2.7,4.06-6.6c.27-2.32-.61-4.71-2.63-7.11-3.02-3.59-4.36-7.21-3.97-10.76.53-4.84,4.13-7.65,4.29-7.76l2.44,3.17s-2.43,1.95-2.75,5.07c-.25,2.41.78,5,3.06,7.7,2.78,3.29,3.97,6.72,3.54,10.2-.69,5.65-5.48,9.18-5.68,9.33Z"/>
      <path class="cls-1" d="m89.04,53.14l-2.35-3.24s3.6-2.7,4.06-6.6c.27-2.32-.61-4.71-2.63-7.11-3.02-3.59-4.36-7.21-3.97-10.76.53-4.84,4.13-7.65,4.29-7.76l2.44,3.17s-2.43,1.95-2.75,5.07c-.25,2.41.78,5,3.06,7.7,2.78,3.29,3.97,6.72,3.54,10.2-.69,5.65-5.48,9.18-5.68,9.33Z"/>
      <path class="cls-1" d="m25.92,54.93l-2.35-3.24s3.6-2.7,4.06-6.6c.27-2.32-.61-4.71-2.63-7.11-3.02-3.59-4.36-7.21-3.97-10.76.53-4.84,4.13-7.65,4.29-7.76l2.44,3.17s-2.43,1.95-2.75,5.07c-.25,2.41.78,5,3.06,7.7,2.78,3.29,3.97,6.72,3.54,10.2-.69,5.65-5.48,9.18-5.68,9.33Z"/>
    </g>
  </g>
</svg>