<?xml version="1.0" encoding="UTF-8"?>
<svg id="Calque_2" data-name="Calque 2" xmlns="http://www.w3.org/2000/svg" viewBox="0 0 107.32 107.32">
  <defs>
    <style>
      .cls-1 {
        fill: #333;
      }
    </style>
  </defs>
  <g id="Layer_1" data-name="Layer 1">
    <g>
      <g>
        <path class="cls-1" d="m44.78,42.42l-12.93-22.39c-.55-.96-.23-2.18.73-2.74,6.36-3.68,13.62-5.62,21.01-5.62s14.65,1.94,21.01,5.62c.95.55,1.28,1.76.74,2.71l-12.94,22.42-3.46-2,11.91-20.62c-5.31-2.71-11.23-4.13-17.25-4.13s-11.93,1.42-17.25,4.13l11.91,20.62-3.46,2Z"/>
        <path class="cls-1" d="m33.57,90.31c-.35,0-.69-.09-1-.27-12.95-7.49-20.99-21.43-20.99-36.37,0-.53.21-1.04.59-1.42s.88-.59,1.41-.59h25.86s0,4.01,0,4.01H15.64c.64,12.09,7.08,23.24,17.24,29.86l11.91-20.62,3.46,2-12.93,22.39c-.27.46-.71.8-1.22.94-.17.05-.35.07-.53.07Z"/>
        <path class="cls-1" d="m73.59,90.31c-.66,0-1.31-.33-1.69-.93l-12.98-22.48,3.46-2,11.91,20.62c10.16-6.62,16.6-17.78,17.24-29.87h-23.8v-4h25.86c1.1,0,2,.9,2,2,0,14.95-8.04,28.89-20.99,36.38-.31.18-.66.27-1,.27Z"/>
      </g>
      <path class="cls-1" d="m53.66,69.62c-8.8,0-15.96-7.16-15.96-15.96s7.16-15.96,15.96-15.96,15.96,7.16,15.96,15.96-7.16,15.96-15.96,15.96Zm0-27.92c-6.6,0-11.96,5.37-11.96,11.96s5.37,11.96,11.96,11.96,11.96-5.37,11.96-11.96-5.37-11.96-11.96-11.96Z"/>
      <path class="cls-1" d="m53.66,107.32C24.07,107.32,0,83.25,0,53.66S24.07,0,53.66,0s53.66,24.07,53.66,53.66-24.07,53.66-53.66,53.66Zm0-103.32C26.28,4,4,26.28,4,53.66s22.28,49.66,49.66,49.66,49.66-22.28,49.66-49.66S81.04,4,53.66,4Z"/>
    </g>
  </g>
</svg>