<?xml version="1.0" encoding="UTF-8"?>
<svg id="Calque_2" data-name="Calque 2" xmlns="http://www.w3.org/2000/svg" viewBox="0 0 121.72 116.38">
  <defs>
    <style>
      .cls-1 {
        fill: #333;
      }
    </style>
  </defs>
  <g id="Layer_1" data-name="Layer 1">
    <g>
      <g>
        <path class="cls-1" d="m119.72,65.83h-62.42v-4h60.42V4H18.67v35.23h-4V2c0-1.1.9-2,2-2h103.04c1.1,0,2,.9,2,2v61.83c0,1.1-.9,2-2,2Z"/>
        <rect class="cls-1" x="66.19" y="63.83" width="4" height="10.31"/>
        <rect class="cls-1" x="61.67" y="72.14" width="21.85" height="4"/>
        <rect class="cls-1" x="95.95" y="47.95" width="16.62" height="4" transform="translate(-4.78 88.35) rotate(-45)"/>
        <rect class="cls-1" x="107.88" y="53.92" width="6.55" height="4" transform="translate(-6.99 94.98) rotate(-45)"/>
      </g>
      <g>
        <g>
          <path class="cls-1" d="m39.72,116.38c-2.28,0-4.51-1.13-5.82-3.2L1.06,61.14C-.96,57.94,0,53.69,3.2,51.67l23.76-14.99c1.55-.98,3.38-1.29,5.18-.88,1.79.41,3.32,1.48,4.29,3.03l32.84,52.04h0c.98,1.55,1.29,3.38.88,5.18-.4,1.79-1.48,3.32-3.03,4.29l-23.75,14.99c-1.13.72-2.4,1.06-3.65,1.06Zm-9.11-76.75c-.53,0-1.06.15-1.51.44l-23.76,14.99c-1.34.84-1.74,2.62-.89,3.95l32.84,52.04c.84,1.34,2.61,1.74,3.95.89l23.75-14.99c.64-.41,1.09-1.04,1.26-1.79.17-.75.04-1.52-.37-2.16l-32.84-52.04c-.41-.64-1.04-1.09-1.79-1.26-.21-.05-.43-.07-.64-.07Z"/>
          <g>
            <path class="cls-1" d="m4.34,64.43c-.66,0-1.31-.33-1.69-.93-.59-.93-.31-2.17.62-2.76l31.74-20.03c.94-.59,2.17-.31,2.76.62.59.93.31,2.17-.62,2.76l-31.74,20.03c-.33.21-.7.31-1.07.31Z"/>
            <path class="cls-1" d="m33.93,111.31c-.66,0-1.31-.33-1.69-.93-.59-.93-.31-2.17.62-2.76l31.9-20.14c.93-.59,2.17-.31,2.76.62.59.93.31,2.17-.62,2.76l-31.9,20.14c-.33.21-.7.31-1.07.31Z"/>
          </g>
        </g>
        <rect class="cls-1" x="41.05" y="83.12" width="12.73" height="4" transform="translate(-46.08 112.58) rotate(-77.25)"/>
        <rect class="cls-1" x="51.81" y="84.18" width="5.02" height="4" transform="translate(-41.72 120.14) rotate(-77.25)"/>
      </g>
    </g>
  </g>
</svg>