<?xml version="1.0" encoding="UTF-8"?>
<svg id="Calque_2" data-name="Calque 2" xmlns="http://www.w3.org/2000/svg" viewBox="0 0 104.99 108.4">
  <defs>
    <style>
      .cls-1 {
        fill: #333;
      }
    </style>
  </defs>
  <g id="Layer_1" data-name="Layer 1">
    <g>
      <g>
        <path class="cls-1" d="m83.16,58.43s-.05,0-.07,0l-14.36-.52c-1.33-.05-3.28-.46-4.53-.96l-26.58-10.61c-1.18-.47-2.91-1.46-3.92-2.24l-11.98-9.27c-.65-.51-1.98-1.15-2.78-1.35l-4.21-1.05c-1.04-.26-1.92-.92-2.46-1.84-.54-.93-.68-2.01-.39-3.05l5.18-18.57c.29-1.04.97-1.89,1.92-2.4.95-.51,2.03-.61,3.06-.28l4.94,1.57c.69.22,2.06.27,2.76.09L57.57,1.1c1.56-.39,3.73-.1,5.14.68l24.63,13.61c1.21.67,2.75,1.99,3.59,3.08l5.33,6.92c.85,1.1,1.72,2.95,2.04,4.3l2.29,9.89c.32,1.36.33,3.41.04,4.78-.19.87-.88,2.09-2.2,2.66-1.45.62-3.19.32-5.18-.89-4.44-2.71-5.56-9.2-5.67-9.93-.12-.75-.67-2.02-1.14-2.61l-3.76-4.77c-.38-.49-1.4-1.1-2.01-1.22l-12.5-2.39c-1.31-.25-3.18-.96-4.33-1.64l-.15-.09-1.89,10.54c-.14.77-.06,2.22.16,2.97h0s1.17,3.02,7.64,6.68c2.21.17,10.41.97,14.07,3.62,1.43,1.04,3.12,2.49,3.42,4.56.31,2.15-.98,4.05-2.34,5.81-.38.49-.97.78-1.58.78ZM15.76,28.57l4.15,1.04c1.34.33,3.17,1.22,4.26,2.07l11.98,9.27c.73.56,2.11,1.35,2.96,1.69l26.58,10.61c.8.32,2.32.64,3.19.67l13.31.48c.48-.68,1-1.53.94-1.98-.03-.2-.26-.78-1.8-1.9-2.61-1.88-9.86-2.73-12.44-2.9-.29-.02-.58-.1-.84-.25-8.36-4.61-9.79-8.8-9.92-9.27-.4-1.35-.51-3.42-.26-4.8l2.04-11.41c.21-1.17.9-2.1,1.89-2.56.99-.45,2.15-.37,3.17.24l.91.54c.74.44,2.19.99,3.04,1.15l12.5,2.39c1.56.3,3.41,1.42,4.4,2.67l3.76,4.77c.89,1.13,1.73,3.06,1.95,4.48.23,1.48,1.37,5.64,3.8,7.13.76.47,1.22.58,1.42.61.13-.73.11-2.1-.06-2.84l-2.29-9.89c-.18-.8-.81-2.11-1.31-2.76l-5.33-6.92c-.51-.66-1.63-1.62-2.36-2.02l-24.63-13.61c-.52-.29-1.67-.44-2.25-.3l-27.82,6.86c-1.42.35-3.54.28-4.93-.16l-4.87-1.55-5.14,18.44Z"/>
        <path class="cls-1" d="m12.42,35.15c-.13,0-.26-.01-.38-.04l-12.04-2.35.77-3.93,10.23,1.99,6.96-24.97-9.91-1.93.77-3.93,12.04,2.35c.55.11,1.03.44,1.32.91.29.47.37,1.05.23,1.59l-8.04,28.84c-.25.88-1.04,1.46-1.92,1.46Z"/>
      </g>
      <path class="cls-1" d="m67.82,81.16c-1.12,0-2.94-.42-6.66-1.34-2.09-.52-5.22-1.27-5.98-1.27-.66.11-1.41-.09-2.01-.58-1.63-1.33-2.13-5.19-2.27-8.2-.02-.49.14-.97.44-1.35l5.46-6.77c.69-.86,1.94-.99,2.8-.31l7.91,6.29-2.49,3.13-6.36-5.06-3.73,4.62c.12,1.69.41,3.4.69,4.24,1.23.09,3.15.54,6.5,1.37,1.72.43,4.2,1.04,5.28,1.19.27-.25.63-.61.99-1l-.79-1.6,3.58-1.78,1.4,2.83c.36.73.25,1.6-.29,2.21-.46.52-2.03,2.28-3.01,2.95-.4.28-.81.42-1.47.42Zm-13.2-6.57h0,0Z"/>
      <path class="cls-1" d="m93.56,96.46c-.14,0-.29-.02-.43-.05l-8.64-1.88c-.82-.18-1.44-.85-1.56-1.68l-.79-5.65,3.96-.55.59,4.27,6.72,1.47,6.9-2.42-2.81-6.88-7.67-3.07-3.32,4.5-3.22-2.38,4.24-5.75c.54-.73,1.5-1.01,2.35-.67l9.89,3.96c.5.2.9.6,1.11,1.1l3.93,9.61c.21.51.2,1.08-.03,1.58-.22.5-.65.89-1.16,1.07l-9.42,3.3c-.21.08-.44.11-.66.11Z"/>
      <path class="cls-1" d="m72.2,108.4c-1.31,0-3.82-.31-8.99-1.43-.73-.16-1.31-.71-1.51-1.43l-1.79-6.61c-.24-.88.15-1.81.94-2.26l8.2-4.7,1.99,3.47-6.86,3.93,1.07,3.94c2.85.58,5.92,1.1,6.89,1.11,1.08-.52,3.86-1.71,5.92-2.59l-2.54-5.23,3.6-1.75,3.46,7.12c.24.49.27,1.06.07,1.58-.19.51-.59.93-1.1,1.14-3.44,1.45-7.31,3.12-7.81,3.39-.26.14-.57.31-1.54.31Z"/>
    </g>
  </g>
</svg>