<?xml version="1.0" encoding="UTF-8"?>
<svg id="Calque_2" data-name="Calque 2" xmlns="http://www.w3.org/2000/svg" viewBox="0 0 122.73 72">
  <defs>
    <style>
      .cls-1 {
        fill: #333;
      }
    </style>
  </defs>
  <g id="Layer_1" data-name="Layer 1">
    <g>
      <path class="cls-1" d="m83.54,72c-1.18,0-3.68-.53-10.06-2.56-.31-.1-.59-.27-.82-.5l-6.75-6.86,2.85-2.8,6.4,6.5c2.6.81,5.52,1.66,7.16,2.03.49-1.35,1.28-3.44,2.37-6.26l-2.82-7.35-4.34-5.13-5.32.85-6.78,7.48-2.96-2.69,7.25-8c.31-.34.72-.56,1.16-.63l7.12-1.15c.69-.11,1.39.15,1.85.68l5.28,6.26c.14.17.26.37.34.57l3.22,8.39c.18.46.18.98,0,1.44-1.38,3.56-2.89,7.57-3.05,8.12-.1.5-.46,1-.97,1.3-.27.16-.52.31-1.15.31Zm-1.72-2.74c-.03.08-.05.17-.07.27.01-.06.04-.15.07-.27Z"/>
      <path class="cls-1" d="m90.84,70l-.18-4,13.15-.59.52-4.19-3.17-3.66s-.05-.06-.07-.09l-3.34-4.34-7.47,4.43-2.04-3.44,9-5.33c.87-.51,1.99-.3,2.61.5l4.38,5.7,3.71,4.29c.37.43.54.99.47,1.55l-.83,6.75c-.12.97-.92,1.71-1.9,1.75l-14.83.67Z"/>
      <path class="cls-1" d="m100.27,47.2l-1.19-7.94-6.71-.66-10.64.54-3.47,3.11-2.67-2.98,4-3.58c.34-.31.78-.49,1.23-.51l11.5-.58c.1,0,.2,0,.3,0l8.41.83c.91.09,1.64.79,1.78,1.69l1.42,9.48-3.96.59Z"/>
      <path class="cls-1" d="m63.77,44.53l-2.49-9.93c-.23-.9.2-1.83,1.02-2.26l6.57-3.42,8.58-5.05c.72-.43,1.63-.36,2.28.17l8.38,6.82-2.53,3.1-7.3-5.94-7.42,4.37s-.06.04-.09.05l-5.21,2.71,2.11,8.4-3.88.97Z"/>
      <path class="cls-1" d="m117.65,56.99l-2.55-4.53-5.45,2.49-1.66-3.64,7.12-3.25c.94-.43,2.06-.07,2.57.84l3.46,6.12-3.48,1.96Z"/>
      <path class="cls-1" d="m111.37,70.2l-2.57-3.06,7.87-6.62c.79-.66,1.95-.62,2.69.1l3.37,3.31-2.8,2.86-2.08-2.04-6.48,5.45Z"/>
      <g>
        <path class="cls-1" d="m96.85,25.81c-.14,0-.28-.01-.41-.04l-58-12.29c-1.08-.23-1.77-1.29-1.54-2.37l1.81-8.53c.11-.52.42-.97.87-1.26.44-.29.99-.39,1.5-.28l58,12.29c1.08.23,1.77,1.29,1.54,2.37l-1.81,8.53c-.11.52-.42.97-.87,1.26-.33.21-.71.32-1.09.32Zm-55.63-15.83l54.09,11.46.98-4.62L42.2,5.36l-.98,4.62Z"/>
        <path class="cls-1" d="m76.71,12.63c-.14,0-.28-.01-.42-.04l-14.1-2.99c-1.08-.23-1.77-1.29-1.54-2.37l1.19-5.64c.11-.52.42-.97.87-1.26.45-.29.99-.39,1.5-.28l14.1,2.99c.52.11.97.42,1.26.87.29.45.39.99.28,1.51l-1.2,5.64c-.2.94-1.03,1.58-1.95,1.58Zm-11.73-6.53l10.19,2.16.37-1.73-10.19-2.16-.37,1.73Z"/>
      </g>
      <path class="cls-1" d="m56.38,71.63H6.15c-3.39,0-6.15-2.76-6.15-6.15V25.82c0-3.39,2.76-6.15,6.15-6.15h50.23c1.1,0,2,.9,2,2v47.96c0,1.1-.9,2-2,2ZM6.15,23.67c-1.19,0-2.15.96-2.15,2.15v39.66c0,1.19.97,2.15,2.15,2.15h48.23V23.67H6.15Z"/>
      <rect class="cls-1" x="12.22" y="29.48" width="5.76" height="4"/>
      <rect class="cls-1" x="17.98" y="29.48" width="28.18" height="4"/>
      <rect class="cls-1" x="12.22" y="43.68" width="33.95" height="4"/>
      <rect class="cls-1" x="12.22" y="57.87" width="4.94" height="4"/>
      <rect class="cls-1" x="17.16" y="57.87" width="29" height="4"/>
    </g>
  </g>
</svg>