<?xml version="1.0" encoding="UTF-8"?>
<svg id="Calque_2" data-name="Calque 2" xmlns="http://www.w3.org/2000/svg" viewBox="0 0 126.97 108.33">
  <defs>
    <style>
      .cls-1 {
        fill: #333;
      }
    </style>
  </defs>
  <g id="Layer_1" data-name="Layer 1">
    <g>
      <path class="cls-1" d="m111.35,108.33c-4.58,0-6.95-1.81-9.03-3.41-1.88-1.44-3.37-2.59-6.59-2.59s-4.71,1.14-6.59,2.59c-2.08,1.6-4.44,3.41-9.03,3.41s-6.95-1.81-9.03-3.41c-1.88-1.44-3.37-2.59-6.59-2.59s-4.71,1.14-6.59,2.59c-2.08,1.6-4.44,3.41-9.03,3.41s-6.94-1.81-9.03-3.41c-1.88-1.44-3.37-2.59-6.59-2.59s-4.71,1.14-6.59,2.59c-2.08,1.6-4.44,3.41-9.03,3.41s-6.94-1.81-9.03-3.41c-1.88-1.44-3.36-2.59-6.59-2.59v-4c4.58,0,6.94,1.81,9.03,3.41,1.88,1.44,3.37,2.59,6.59,2.59s4.71-1.14,6.59-2.59c2.08-1.6,4.44-3.41,9.03-3.41s6.94,1.81,9.03,3.41c1.88,1.44,3.37,2.59,6.59,2.59s4.71-1.14,6.59-2.59c2.08-1.6,4.44-3.41,9.03-3.41s6.95,1.81,9.03,3.41c1.88,1.44,3.37,2.59,6.59,2.59s4.71-1.14,6.59-2.59c2.08-1.6,4.44-3.41,9.03-3.41s6.95,1.81,9.03,3.41c1.88,1.44,3.37,2.59,6.59,2.59s4.71-1.14,6.59-2.59c2.08-1.6,4.44-3.41,9.03-3.41v4c-3.23,0-4.71,1.14-6.59,2.59-2.08,1.6-4.44,3.41-9.03,3.41Z"/>
      <path class="cls-1" d="m43.53,74.84c-.4,0-.8-.12-1.14-.36L4.41,48.11c-4.19-2.91-5.62-8.33-3.32-12.6L12.09,15.1c2.25-4.17,7.46-6,12.12-4.25l43.6,16.34c.54.2.97.63,1.17,1.17.2.54.16,1.14-.11,1.65l-23.58,43.78c-.27.5-.74.86-1.3,1-.15.04-.31.05-.47.05ZM20.57,14.19c-2.07,0-4,1.03-4.96,2.81l-10.99,20.41h0c-1.33,2.48-.44,5.67,2.08,7.42l36.14,25.1,21.43-39.79L22.81,14.6c-.74-.28-1.5-.41-2.24-.41Z"/>
      <rect class="cls-1" x="75.66" y="-.07" width="4" height="57.86" transform="translate(-3.73 13.37) rotate(-9.61)"/>
      <path class="cls-1" d="m78.84,37.79c-.96,0-1.8-.69-1.97-1.67l-2.35-13.87c-.09-.52.03-1.06.34-1.49s.77-.73,1.3-.81l5.55-.94c1.09-.18,2.12.55,2.31,1.64l2.35,13.87c.09.52-.03,1.06-.34,1.49-.31.43-.77.73-1.3.81l-5.55.94c-.11.02-.22.03-.34.03Zm-.04-14.23l1.68,9.92,1.6-.27-1.68-9.92-1.6.27Z"/>
      <rect class="cls-1" x="19.71" y="18.83" width="4" height="5.78" transform="translate(-6.41 34.06) rotate(-68.72)"/>
      <rect class="cls-1" x="38.04" y="12.06" width="4" height="33.59" transform="translate(-1.38 55.7) rotate(-68.72)"/>
      <rect class="cls-1" x="10.6" y="35.73" width="4" height="5.78" transform="translate(-26.2 26.6) rotate(-54.71)"/>
      <rect class="cls-1" x="26.67" y="33.19" width="4" height="33.58" transform="translate(-28.69 44.52) rotate(-54.72)"/>
      <rect class="cls-1" x="34.03" y="25.74" width="4" height="29.41" transform="translate(-16.58 53.34) rotate(-62.08)"/>
      <rect class="cls-1" x="16.79" y="26.44" width="4" height="9.66" transform="translate(-17.66 32.98) rotate(-61.69)"/>
      <path class="cls-1" d="m50.85,90.55c-3.22-2.26-5.07-4.88-5.51-7.8-.56-3.74,1.43-6.43,1.66-6.73l3.16,2.45-1.58-1.23,1.59,1.21s-1.21,1.65-.87,3.75c.29,1.78,1.58,3.48,3.84,5.07l-2.3,3.28Z"/>
      <path class="cls-1" d="m47.97,100.23c-6.07-8.79-.94-15.31-.72-15.58l3.12,2.5c-.14.18-3.43,4.55.89,10.81l-3.29,2.28Z"/>
      <path class="cls-1" d="m73.64,76.07c-2.65-10.45-14.11-12.49-14.23-12.51l.66-3.95c.58.1,14.16,2.52,17.44,15.47l-3.88.98Z"/>
      <path class="cls-1" d="m81.33,98.38l-.79-3.92c2.82-.57,5.4-2.71,6.43-5.33.99-2.53.52-5.25-1.36-7.88-4.74-6.6-10.62-6.42-10.87-6.41l-.23-3.99c.33-.02,8.27-.4,14.35,8.07,2.68,3.73,3.33,7.88,1.83,11.68-1.53,3.89-5.21,6.94-9.37,7.78Z"/>
      <path class="cls-1" d="m78.15,87.12c-1.22-4.48-5.52-5.95-7.36-6.58-.42-.14-.72-.25-.98-.38l1.76-3.59c.11.05.29.11.51.18,2.23.76,8.14,2.78,9.92,9.31l-3.86,1.05Z"/>
    </g>
  </g>
</svg>