<?xml version="1.0" encoding="UTF-8"?>
<svg id="Calque_2" data-name="Calque 2" xmlns="http://www.w3.org/2000/svg" viewBox="0 0 113.84 100.4">
  <defs>
    <style>
      .cls-1 {
        fill: #333;
      }
    </style>
  </defs>
  <g id="Layer_1" data-name="Layer 1">
    <g>
      <path class="cls-1" d="m31.03,100.4c-3.08,0-6.17-.44-9.16-1.34-.91-.27-1.5-1.15-1.41-2.1.09-.95.83-1.7,1.78-1.8,4.25-.46,8.55-1.88,12.43-4.12,6.21-3.59,10.91-8.91,13.22-14.98,2.26-5.93,1.96-11.87-.85-16.73-5.87-10.16-20.96-12.47-33.65-5.14-3.88,2.24-7.26,5.24-9.77,8.69-.56.77-1.59,1.04-2.45.64-.87-.4-1.33-1.35-1.11-2.28,2-8.51,7.49-15.89,15.07-20.27,3.92-2.26,8.27-3.66,12.74-4.11-1.85-4.1-2.82-8.57-2.82-13.09,0-8.75,3.66-17.21,10.03-23.2.69-.65,1.75-.73,2.53-.17.78.55,1.06,1.57.67,2.44-1.73,3.91-2.64,8.34-2.64,12.83,0,14.65,9.55,26.57,21.28,26.57s21.28-11.92,21.28-26.57c0-4.48-.91-8.91-2.64-12.81-.38-.87-.1-1.89.67-2.44.78-.55,1.83-.48,2.53.17,6.37,5.99,10.02,14.44,10.02,23.18,0,4.52-.97,8.99-2.81,13.09,4.48.45,8.83,1.84,12.75,4.11h0c7.58,4.38,13.08,11.77,15.08,20.29.22.93-.25,1.88-1.11,2.28-.86.4-1.89.13-2.45-.64-2.52-3.45-5.91-6.46-9.79-8.7-12.68-7.32-27.78-5.02-33.65,5.14-5.87,10.16-.32,24.39,12.37,31.71,3.88,2.24,8.17,3.66,12.41,4.12.95.1,1.69.86,1.78,1.8.09.95-.5,1.83-1.41,2.1-8.37,2.52-17.51,1.46-25.09-2.92-3.92-2.26-7.3-5.33-9.93-8.98-2.63,3.65-6.01,6.72-9.93,8.99-4.87,2.81-10.4,4.26-15.96,4.26Zm-2.26-54.49c9.15,0,17.44,3.98,21.73,11.41,3.42,5.92,3.81,13.07,1.12,20.15-2.64,6.93-7.95,12.98-14.96,17.03-1.21.7-2.45,1.32-3.72,1.88,4.18-.28,8.28-1.52,12.04-3.69,4.23-2.45,7.76-5.97,10.2-10.2.36-.62,1.02-1,1.73-1s1.38.38,1.73,1c2.43,4.23,5.96,7.75,10.19,10.2,3.75,2.17,7.85,3.41,12.02,3.69-1.26-.55-2.5-1.18-3.7-1.87-14.6-8.43-20.8-25.11-13.83-37.18,6.97-12.07,24.52-15.03,39.11-6.61,1.21.7,2.37,1.46,3.49,2.28-2.33-3.48-5.46-6.41-9.22-8.58h0c-4.23-2.44-9.03-3.73-13.9-3.73-.01,0-.03,0-.04,0-.71,0-1.38-.38-1.73-1-.36-.62-.36-1.38,0-2,2.44-4.22,3.74-9.04,3.74-13.93,0-4.34-.97-8.5-2.81-12.25.15,1.37.23,2.75.23,4.14,0,16.86-11.34,30.57-25.28,30.57s-25.28-13.71-25.28-30.57c0-1.39.08-2.78.24-4.16-1.85,3.76-2.82,7.93-2.82,12.27,0,4.89,1.29,9.71,3.74,13.93.36.62.36,1.38,0,2-.36.62-1.02,1-1.73,1h-.03c-4.87,0-9.68,1.29-13.91,3.73-3.76,2.17-6.87,5.09-9.2,8.56,1.11-.82,2.27-1.58,3.47-2.27,5.62-3.24,11.67-4.8,17.39-4.8Z"/>
      <path class="cls-1" d="m48.5,80.2c-11.48-3.67-19.2-14.25-19.2-26.32,0-2.12.24-4.23.72-6.28l3.9.91c-.41,1.75-.61,3.55-.61,5.37,0,10.32,6.6,19.37,16.42,22.51l-1.22,3.81Z"/>
      <path class="cls-1" d="m65.33,80.21l-1.22-3.81c9.83-3.14,16.43-12.18,16.43-22.51,0-1.81-.21-3.62-.61-5.37l3.9-.91c.48,2.05.72,4.16.72,6.28,0,12.08-7.72,22.65-19.22,26.32Z"/>
      <path class="cls-1" d="m41.06,36.37l-2.69-2.96c5.09-4.61,11.68-7.15,18.55-7.15s13.45,2.54,18.54,7.14l-2.69,2.96c-4.35-3.94-9.98-6.11-15.85-6.11s-11.51,2.17-15.86,6.12Z"/>
    </g>
  </g>
</svg>