<?xml version="1.0" encoding="UTF-8"?>
<svg id="Calque_2" data-name="Calque 2" xmlns="http://www.w3.org/2000/svg" viewBox="0 0 72.5 105.63">
  <defs>
    <style>
      .cls-1 {
        fill: #333;
      }
    </style>
  </defs>
  <g id="Layer_1" data-name="Layer 1">
    <g>
      <g>
        <g>
          <g>
            <path class="cls-1" d="m65.3,97.28c-.98,0-1.98-.2-2.93-.63l1.64-3.65c1.6.72,3.49,0,4.21-1.6.72-1.6,0-3.49-1.6-4.21-1.6-.72-3.49,0-4.21,1.6-.45,1.01-1.64,1.45-2.64,1l-9.03-4.06,1.64-3.65,7.46,3.35c2.02-2.37,5.44-3.24,8.42-1.9,3.61,1.63,5.23,5.89,3.61,9.5-1.2,2.66-3.82,4.24-6.57,4.24Z"/>
            <path class="cls-1" d="m61.56,105.63c-1,0-2-.21-2.94-.64-1.75-.79-3.09-2.21-3.77-4-.44-1.15-.57-2.37-.4-3.56l-10.44-4.7,1.64-3.65,12.01,5.4c1.01.45,1.46,1.64,1,2.64-.35.78-.37,1.64-.07,2.44.3.79.89,1.42,1.67,1.77.78.35,1.64.37,2.44.07.8-.3,1.43-.89,1.77-1.67.48-1.08.34-2.33-.39-3.26l3.16-2.45c1.63,2.11,1.97,4.92.87,7.35-.79,1.75-2.21,3.09-4,3.77-.83.31-1.69.47-2.55.47Z"/>
          </g>
          <g>
            <path class="cls-1" d="m30.34,76.56l-15.49-6.97c-1.01-.45-1.46-1.64-1-2.64.72-1.6,0-3.49-1.6-4.21-.78-.35-1.64-.37-2.44-.07-.8.3-1.43.89-1.77,1.67-.72,1.6,0,3.49,1.6,4.21l-1.64,3.65c-3.61-1.62-5.23-5.89-3.61-9.5.79-1.75,2.21-3.09,4-3.77,1.79-.68,3.75-.62,5.5.16,2.98,1.34,4.6,4.47,4.17,7.56l13.93,6.26-1.64,3.65Z"/>
            <rect class="cls-1" x="40.89" y="87.93" width="4" height="4.24" transform="translate(-56.83 92.24) rotate(-65.79)"/>
            <path class="cls-1" d="m20.32,82.1l-7.66-3.45c-.78.92-1.77,1.62-2.93,2.06-1.8.68-3.75.62-5.5-.17-3.61-1.62-5.23-5.89-3.61-9.5,1.09-2.43,3.42-4.05,6.08-4.22l.27,3.99c-1.18.08-2.21.8-2.7,1.87-.72,1.6,0,3.49,1.6,4.21.77.35,1.64.38,2.44.07.79-.3,1.43-.9,1.77-1.67.22-.48.62-.86,1.11-1.05.5-.19,1.05-.17,1.53.05l9.23,4.15-1.64,3.65Z"/>
          </g>
        </g>
        <g>
          <g>
            <path class="cls-1" d="m7.2,97.28c-2.74,0-5.37-1.58-6.57-4.24-1.62-3.61,0-7.87,3.6-9.5,2.98-1.34,6.4-.47,8.42,1.9l10.44-4.7,1.64,3.65-12.01,5.4c-1.01.45-2.19,0-2.64-1-.72-1.6-2.61-2.32-4.21-1.6-1.6.72-2.32,2.61-1.6,4.21.72,1.6,2.61,2.32,4.21,1.6l1.64,3.65c-.95.43-1.95.63-2.93.63Z"/>
            <path class="cls-1" d="m10.95,105.63c-2.74,0-5.37-1.58-6.56-4.24-1.09-2.43-.76-5.24.87-7.35l3.16,2.45c-.72.94-.87,2.19-.39,3.26.72,1.6,2.61,2.32,4.21,1.6.78-.35,1.37-.98,1.67-1.77.3-.79.28-1.66-.07-2.44-.45-1.01,0-2.19,1-2.64l12.01-5.4,1.64,3.65-10.44,4.7c.17,1.19.04,2.4-.4,3.56-.68,1.79-2.02,3.22-3.77,4-.95.43-1.95.63-2.93.63Z"/>
          </g>
          <g>
            <path class="cls-1" d="m24.74,84.39l-1.64-3.65,31.34-14.09c-.43-3.09,1.19-6.22,4.17-7.56,3.61-1.62,7.87,0,9.5,3.61,1.62,3.61,0,7.88-3.61,9.5l-1.64-3.65c1.6-.72,2.32-2.61,1.6-4.21-.72-1.6-2.61-2.32-4.21-1.6-1.6.72-2.32,2.61-1.6,4.21.45,1.01,0,2.19-1,2.64l-32.91,14.8Z"/>
            <path class="cls-1" d="m28.5,92.74l-1.64-3.65,32.91-14.8c.48-.22,1.03-.24,1.53-.05.5.19.9.57,1.11,1.05.35.78.98,1.37,1.77,1.67.79.3,1.66.28,2.43-.07,1.6-.72,2.32-2.61,1.6-4.21-.48-1.08-1.52-1.79-2.7-1.87l.27-3.99c2.66.18,4.99,1.8,6.08,4.22,1.62,3.61,0,7.87-3.61,9.5-1.75.79-3.7.85-5.5.16-1.15-.44-2.15-1.15-2.93-2.06l-31.34,14.09Z"/>
          </g>
        </g>
      </g>
      <g>
        <path class="cls-1" d="m58.27,19.46h-4c0-8.53-8.46-15.46-18.85-15.46s-18.85,6.94-18.85,15.46h-4C12.57,8.73,22.82,0,35.42,0s22.85,8.73,22.85,19.46Z"/>
        <path class="cls-1" d="m15.83,42.15c-1.67,0-3.71-.83-5.21-3.67-1.71-3.24.41-7.81,1.82-10.24,2.02-3.48,4.79-6.5,7.05-7.69,2.39-1.26,5.3-.93,8.2.94,2.13,1.38,4.15,3.55,5.27,5.67.65,1.23.75,2.58.29,3.9-1.39,4.05-7.67,7.17-13.99,10.02-.52.24-1,.45-1.4.64-.53.25-1.24.43-2.03.43Zm6.75-18.36c-.42,0-.83.08-1.22.29-1.35.71-3.65,3.06-5.46,6.16-1.84,3.17-2.19,5.52-1.75,6.37h0c.65,1.23,1.39,1.77,2.02,1.48.42-.19.91-.41,1.45-.66,3.26-1.47,10.91-4.92,11.85-7.67.1-.29.08-.48-.05-.74-.81-1.53-2.34-3.17-3.91-4.18-.82-.53-1.89-1.06-2.93-1.06Z"/>
        <path class="cls-1" d="m55.16,41.85c-.63,0-1.23-.12-1.77-.33-.42-.16-.91-.35-1.45-.55-6.49-2.42-12.97-5.11-14.62-9.06-.54-1.29-.53-2.65.03-3.91,2.02-4.53,7.81-9.81,13-7.5,4.63,2.06,12.51,11.78,10.05,17.3h0c-1.34,3.01-3.4,4.05-5.24,4.05Zm-7.45-17.9c-2.44,0-5.57,3.12-6.71,5.68-.11.26-.11.46,0,.74,1.12,2.68,8.98,5.61,12.33,6.86.56.21,1.06.4,1.49.56.89.34,1.58-.86,1.92-1.61h0c1.14-2.55-4.57-10.48-8.03-12.02-.32-.14-.65-.21-1.01-.21Z"/>
        <path class="cls-1" d="m38.64,45.93l-3.22-3.21-3.22,3.21-2.82-2.83,4.63-4.62c.78-.78,2.04-.78,2.82,0l4.63,4.62-2.82,2.83Z"/>
        <path class="cls-1" d="m36.25,63.97h-12.16c-.63,0-1.22-.3-1.6-.8-.38-.5-.5-1.16-.32-1.76l1.34-4.57c-2.55.37-4.69-.05-6.4-1.25-3.26-2.28-3.51-6.46-3.51-7.69,0-3.97,4.72-6.31,5.26-6.56l1.71,3.62-.85-1.81.86,1.81c-1.25.6-2.97,1.95-2.97,2.95,0,.53.09,3.21,1.81,4.42,1.65,1.16,4.35.54,6.33-.17.71-.26,1.5-.09,2.05.42.55.52.76,1.3.55,2.02l-1.57,5.38h9.49v4Z"/>
        <path class="cls-1" d="m47.59,63.97h-12.16v-4h9.49l-1.57-5.38c-.21-.72,0-1.5.55-2.02.55-.52,1.34-.68,2.05-.42,1.98.72,4.68,1.33,6.33.17,1.72-1.21,1.81-3.89,1.81-4.42,0-1.08-1.96-2.47-2.97-2.94l1.71-3.62c.54.25,5.26,2.59,5.26,6.56,0,1.23-.25,5.41-3.51,7.69-1.7,1.2-3.85,1.61-6.4,1.25l1.34,4.57c.18.6.06,1.26-.32,1.76-.38.5-.97.8-1.6.8Z"/>
      </g>
    </g>
  </g>
</svg>