<?xml version="1.0" encoding="UTF-8"?>
<svg id="Calque_2" data-name="Calque 2" xmlns="http://www.w3.org/2000/svg" viewBox="0 0 104.01 125.82">
  <defs>
    <style>
      .cls-1 {
        fill: #333;
      }
    </style>
  </defs>
  <g id="Layer_1" data-name="Layer 1">
    <g>
      <g>
        <g>
          <rect class="cls-1" x="81.29" y="110.25" width="4" height="13.57"/>
          <rect class="cls-1" x="69.59" y="121.82" width="27.41" height="4"/>
          <path class="cls-1" d="m83.3,112.25c-11.42,0-20.71-9.29-20.71-20.71v-28.9c0-.53.21-1.04.59-1.42.37-.37.88-.58,1.41-.58h0l28.65.13,8.73-.13h.03c.52,0,1.03.21,1.4.58.38.38.6.89.6,1.42v28.9c0,11.42-9.29,20.71-20.71,20.71Zm-16.71-47.61v26.9c0,9.21,7.5,16.71,16.71,16.71s16.71-7.5,16.71-16.71v-26.87l-6.72.1h-.04l-26.66-.12Z"/>
        </g>
        <path class="cls-1" d="m82.93,94.17l-3.51-1.92,5.64-10.29-8.28-8.06c-.71-.69-.81-1.8-.23-2.6l7-9.73,3.25,2.34-5.99,8.33,8.14,7.92c.64.63.79,1.61.36,2.39l-6.37,11.62Z"/>
      </g>
      <path class="cls-1" d="m32.96,125.47H8.43c-4.65,0-8.43-4.26-8.43-9.51V51.48c0-3.42,2.86-7.46,8.5-12.01,1.61-1.31,2.58-3.51,2.58-5.88V6.39c0-3.52,2.86-6.39,6.39-6.39h6.47c3.52,0,6.39,2.86,6.39,6.39v27.2c0,2.38.96,4.58,2.58,5.88,5.64,4.56,8.49,8.6,8.49,12v64.49c0,5.24-3.78,9.51-8.43,9.51ZM17.46,4c-1.32,0-2.39,1.07-2.39,2.39v27.2c0,3.57-1.52,6.93-4.06,8.99-4.39,3.55-7.01,6.87-7.01,8.9v64.49c0,3.04,1.99,5.51,4.43,5.51h24.53c2.44,0,4.43-2.47,4.43-5.51V51.48c0-2.02-2.62-5.34-7.01-8.89-2.54-2.06-4.06-5.42-4.06-8.99V6.39c0-1.32-1.07-2.39-2.39-2.39h-6.47Z"/>
      <rect class="cls-1" x="27.23" y="63.81" width="4" height="28.33"/>
      <rect class="cls-1" x="27.23" y="96.31" width="4" height="5.67"/>
    </g>
  </g>
</svg>