<?xml version="1.0" encoding="UTF-8"?>
<svg id="Calque_2" data-name="Calque 2" xmlns="http://www.w3.org/2000/svg" viewBox="0 0 123.96 112.62">
  <defs>
    <style>
      .cls-1 {
        fill: #333;
      }
    </style>
  </defs>
  <g id="Layer_1" data-name="Layer 1">
    <g>
      <g>
        <path class="cls-1" d="m109.33,112.62h-36.97c-4.17,0-7.57-3.4-7.57-7.57v-61.24c0-1.1.9-2,2-2h48.11c1.1,0,2,.9,2,2v61.24c0,4.17-3.4,7.57-7.57,7.57Zm-40.54-66.81v59.24c0,1.97,1.6,3.57,3.57,3.57h36.97c1.97,0,3.57-1.6,3.57-3.57v-59.24h-44.11Z"/>
        <rect class="cls-1" x="74.64" y="54.06" width="4" height="46.31"/>
        <rect class="cls-1" x="103.12" y="54.06" width="4" height="46.31"/>
        <rect class="cls-1" x="88.85" y="54.06" width="4" height="46.31"/>
        <path class="cls-1" d="m59.88,42.37c-.74-.87-4.06-5.2-4.44-5.69-.37-.48-.5-1.1-.35-1.69.14-.59.55-1.08,1.1-1.34l12.88-6c.64-.3,1.4-.23,1.98.17l7.42,5.12-2.27,3.29-6.48-4.47-9.58,4.46c1.12,1.46,2.4,3.1,2.77,3.53l-3.03,2.61Z"/>
        <path class="cls-1" d="m85.21,41.69l-3.6-1.74,3.08-6.37-3.66-7.73-12.14-5.63-7.81,4.63,1.84,2.17-3.05,2.59-3.38-3.98c-.38-.45-.54-1.04-.45-1.62.1-.58.45-1.09.95-1.39l10.75-6.38c.57-.33,1.26-.37,1.86-.09l13.75,6.38c.42.2.77.54.97.96l4.38,9.25c.26.55.26,1.18,0,1.73l-3.5,7.23Z"/>
        <path class="cls-1" d="m106.47,41.32l-3.87-1.01,2.23-8.56-8.44-6.42-6.3,4.6-2.36-3.23,7.5-5.48c.72-.52,1.69-.51,2.39.02l10.69,8.12c.64.49.93,1.32.73,2.1l-2.57,9.85Z"/>
        <path class="cls-1" d="m120.03,40.9l-1.62-8.52-6.33.58-.37-3.98,8.14-.75c1.03-.1,1.96.61,2.15,1.62l1.96,10.31-3.93.75Z"/>
        <path class="cls-1" d="m115.3,25.53l-3.02-2.63,2.55-2.93-.65-4.48-9.12.11c-.17,0-.33-.02-.5-.06-6.56-1.59-8.91-2.18-9.83-2.45-.72.04-2.92.29-5.3.58l1.41,5.28-3.87,1.03-2-7.5c-.15-.56-.05-1.15.27-1.63.32-.48.84-.79,1.41-.87,7.72-.98,8.53-1.03,9.13-.75.95.27,6.12,1.54,9.48,2.35l10.62-.12h.02c.99,0,1.84.73,1.98,1.71l1.03,7.12c.08.58-.09,1.16-.47,1.6l-3.16,3.62Zm-21.11-12.63c.13.06.26.1.37.13-.19-.06-.3-.1-.37-.13Z"/>
      </g>
      <path class="cls-1" d="m14.27,70.32c-1.01,0-3.44-.82-13.14-5.46-.73-.35-1.17-1.1-1.13-1.9l.35-7,4,.2-.28,5.66c3.7,1.75,7.69,3.54,9.5,4.23.8-1.18,2.2-3.56,3.35-5.64.99-2.95,2.03-6.44,2.35-8.04-1.14-.84-3.3-2.57-7.62-6.24l-8.86,3.76-1.56-3.68,10-4.25c.7-.29,1.5-.17,2.08.32,3.73,3.18,8.01,6.72,8.81,7.22.42.2.8.57,1,.98.36.73.81,1.63-2.46,11.38-.04.11-.08.22-.14.32-4.13,7.52-4.92,7.79-5.62,8.02-.18.06-.34.11-.61.11Zm7.61-20.91s.07.03.11.04c-.03-.01-.07-.03-.11-.04Zm0,0s0,0,0,0c0,0,0,0,0,0Z"/>
      <path class="cls-1" d="m43.55,21.85C25.39,6.59,2.03,4,1.79,3.98l.41-3.98c1,.1,24.83,2.75,43.91,18.79l-2.57,3.06Z"/>
      <path class="cls-1" d="m28.62,44.7l-3.58-1.79c5.26-10.53,19.8-12.18,20.42-12.25l.42,3.98-.21-1.99.21,1.99c-.13.01-12.99,1.5-17.26,10.06Z"/>
    </g>
  </g>
</svg>