<?xml version="1.0" encoding="UTF-8"?>
<svg id="Calque_2" data-name="Calque 2" xmlns="http://www.w3.org/2000/svg" viewBox="0 0 125.71 124.98">
  <defs>
    <style>
      .cls-1 {
        fill: #333;
      }
    </style>
  </defs>
  <g id="Layer_1" data-name="Layer 1">
    <g>
      <g>
        <path class="cls-1" d="m122.66,22.85c-.08,0-.16,0-.24-.01l-59.04-7.13c-1.1-.13-1.88-1.13-1.75-2.23l1.05-8.68c.06-.53.33-1.01.75-1.33.42-.33.95-.48,1.47-.41l59.04,7.13c1.1.13,1.88,1.13,1.75,2.23l-1.05,8.68c-.06.53-.33,1.01-.75,1.33-.35.28-.79.43-1.23.43Zm-56.81-10.87l55.07,6.65.57-4.71-55.07-6.65-.57,4.71Z"/>
        <path class="cls-1" d="m101.37,11.47c-.08,0-.16,0-.24-.01l-14.35-1.73c-.53-.06-1.01-.33-1.33-.75-.33-.42-.48-.95-.41-1.47l.69-5.74c.13-1.1,1.13-1.89,2.22-1.75l14.35,1.73c.53.06,1.01.33,1.33.75.33.42.48.95.41,1.47l-.69,5.74c-.12,1.02-.99,1.76-1.98,1.76Zm-12.13-5.48l10.38,1.25.21-1.77-10.38-1.25-.21,1.77Z"/>
      </g>
      <path class="cls-1" d="m111.08,124.98h-36.97c-4.17,0-7.57-3.4-7.57-7.57v-61.23c0-1.1.9-2,2-2h48.11c1.1,0,2,.9,2,2v61.23c0,4.17-3.4,7.57-7.57,7.57Zm-40.54-66.81v59.23c0,1.97,1.6,3.57,3.57,3.57h36.97c1.97,0,3.57-1.6,3.57-3.57v-59.23h-44.11Z"/>
      <rect class="cls-1" x="76.38" y="66.42" width="4" height="46.31"/>
      <rect class="cls-1" x="104.86" y="66.42" width="4" height="46.31"/>
      <rect class="cls-1" x="90.6" y="66.42" width="4" height="46.31"/>
      <path class="cls-1" d="m61.62,54.73c-.75-.86-4.06-5.19-4.44-5.69-.37-.48-.5-1.1-.35-1.69.14-.59.55-1.08,1.1-1.34l12.88-6c.65-.3,1.4-.24,1.98.17l7.42,5.12-2.27,3.29-6.48-4.47-9.58,4.46c1.12,1.46,2.4,3.1,2.77,3.53l-3.03,2.61Z"/>
      <path class="cls-1" d="m86.96,54.06l-3.6-1.74,3.08-6.37-3.66-7.73-12.14-5.63-7.81,4.63,1.84,2.17-3.05,2.59-3.37-3.98c-.38-.45-.54-1.04-.45-1.62.1-.58.45-1.09.95-1.39l10.75-6.38c.57-.34,1.26-.37,1.86-.09l13.75,6.38c.42.2.77.54.97.96l4.37,9.25c.26.55.26,1.18,0,1.73l-3.5,7.23Z"/>
      <path class="cls-1" d="m108.22,53.69l-3.87-1.01,2.23-8.56-8.44-6.42-6.3,4.6-2.36-3.23,7.5-5.48c.72-.52,1.69-.51,2.39.02l10.69,8.12c.64.49.93,1.32.73,2.1l-2.57,9.85Z"/>
      <path class="cls-1" d="m121.78,53.26l-1.62-8.52-6.33.58-.37-3.98,8.14-.75c1.03-.09,1.96.61,2.15,1.62l1.96,10.31-3.93.75Z"/>
      <path class="cls-1" d="m117.04,37.89l-3.02-2.63,2.55-2.93-.65-4.48-9.12.11c-.16,0-.33-.02-.5-.06-6.56-1.59-8.91-2.19-9.83-2.45-.72.04-2.92.29-5.3.58l1.41,5.28-3.87,1.03-2-7.5c-.15-.56-.05-1.15.27-1.63.32-.48.84-.8,1.41-.87,7.7-.98,8.53-1.02,9.13-.75.96.27,6.13,1.54,9.47,2.35l10.62-.12c.99-.02,1.86.72,2,1.71l1.03,7.12c.08.58-.09,1.16-.47,1.6l-3.16,3.62Zm-21.14-12.64c.15.07.29.11.4.14-.22-.07-.33-.11-.4-.14Zm-.09-.05s0,0,0,0c0,0,0,0,0,0Z"/>
      <path class="cls-1" d="m39.19,122.59c-.62,0-.88-.15-1.15-.31-.49-.29-.87-.82-.98-1.38-.14-.48-1.65-4.49-3.03-8.04-.18-.46-.18-.98,0-1.44l3.21-8.39c.08-.21.19-.4.34-.57l5.29-6.26c.45-.54,1.16-.79,1.85-.68l7.12,1.15c.45.07.86.3,1.16.63l7.25,8-2.96,2.69-6.78-7.48-5.32-.85-4.34,5.13-2.82,7.35c1.09,2.82,1.88,4.92,2.37,6.26,1.64-.38,4.56-1.22,7.16-2.03l6.4-6.5,2.85,2.81-6.75,6.86c-.23.23-.51.4-.82.5-6.39,2.03-8.88,2.56-10.06,2.56Zm1.72-2.74c.04.12.06.21.07.27-.02-.09-.04-.18-.07-.27Z"/>
      <path class="cls-1" d="m31.89,120.59l-14.83-.67c-.97-.04-1.78-.78-1.9-1.75l-.83-6.75c-.07-.56.1-1.13.47-1.55l3.71-4.29,4.38-5.7c.62-.8,1.73-1.02,2.61-.5l9,5.33-2.04,3.44-7.47-4.43-3.34,4.34s-.05.06-.07.09l-3.17,3.66.52,4.19,13.15.59-.18,4Z"/>
      <path class="cls-1" d="m22.46,97.78l-3.95-.59,1.42-9.48c.14-.91.87-1.6,1.78-1.69l8.41-.83c.1,0,.2-.01.3,0l11.5.58c.46.02.89.2,1.23.51l4,3.58-2.67,2.98-3.47-3.11-10.64-.54-6.71.66-1.19,7.94Z"/>
      <path class="cls-1" d="m58.97,95.12l-3.88-.97,2.11-8.4-5.21-2.71s-.06-.03-.09-.05l-7.42-4.37-7.3,5.94-2.53-3.1,8.38-6.82c.65-.53,1.56-.6,2.28-.17l8.58,5.05,6.57,3.42c.82.43,1.24,1.36,1.02,2.26l-2.49,9.94Z"/>
      <path class="cls-1" d="m5.08,107.57l-3.48-1.96,3.45-6.12c.51-.9,1.63-1.27,2.57-.84l7.12,3.25-1.66,3.64-5.45-2.49-2.55,4.53Z"/>
      <path class="cls-1" d="m11.36,120.79l-6.48-5.45-2.08,2.04-2.8-2.85,3.37-3.31c.74-.72,1.9-.77,2.69-.1l7.87,6.62-2.57,3.06Z"/>
    </g>
  </g>
</svg>