<?xml version="1.0" encoding="UTF-8"?>
<svg id="Calque_2" data-name="Calque 2" xmlns="http://www.w3.org/2000/svg" viewBox="0 0 125.36 118.17">
  <defs>
    <style>
      .cls-1 {
        fill: #333;
      }
    </style>
  </defs>
  <g id="Layer_1" data-name="Layer 1">
    <g>
      <g>
        <path class="cls-1" d="m112.82,62.89c-3.94,0-6-1.97-7.65-3.55-1.48-1.42-2.56-2.45-4.89-2.45s-3.4,1.03-4.88,2.44c-1.65,1.58-3.71,3.56-7.65,3.56s-6-1.97-7.65-3.56c-1.48-1.42-2.55-2.44-4.89-2.44s-3.4,1.03-4.88,2.44c-1.65,1.58-3.71,3.56-7.65,3.56s-5.99-1.97-7.65-3.56c-1.48-1.42-2.55-2.44-4.88-2.44s-3.4,1.03-4.88,2.44c-1.65,1.58-3.71,3.56-7.65,3.56s-6-1.97-7.65-3.56c-1.48-1.42-2.55-2.44-4.88-2.44s-3.4,1.03-4.88,2.44c-1.65,1.58-3.71,3.56-7.65,3.56s-6-1.97-7.65-3.56c-1.48-1.42-2.55-2.44-4.88-2.44v-4c3.94,0,6,1.97,7.65,3.56,1.48,1.42,2.55,2.44,4.88,2.44s3.4-1.03,4.88-2.44c1.65-1.58,3.71-3.56,7.65-3.56s6,1.97,7.65,3.56c1.48,1.42,2.55,2.44,4.88,2.44s3.4-1.03,4.88-2.44c1.65-1.58,3.71-3.56,7.65-3.56s5.99,1.97,7.65,3.56c1.48,1.42,2.55,2.44,4.88,2.44s3.4-1.03,4.88-2.44c1.65-1.58,3.71-3.56,7.65-3.56s6,1.97,7.65,3.56c1.48,1.42,2.55,2.44,4.89,2.44s3.4-1.03,4.88-2.44c1.65-1.58,3.71-3.56,7.65-3.56s6,1.97,7.65,3.55c1.48,1.42,2.56,2.45,4.89,2.45s3.41-1.03,4.89-2.45c1.66-1.58,3.72-3.55,7.65-3.55v4c-2.33,0-3.41,1.03-4.89,2.45-1.66,1.58-3.72,3.55-7.65,3.55Z"/>
        <path class="cls-1" d="m112.82,80.72c-3.94,0-6-1.97-7.65-3.55-1.48-1.42-2.56-2.45-4.89-2.45s-3.4,1.03-4.88,2.44c-1.65,1.58-3.71,3.56-7.65,3.56-2.03,0-3.8-.53-5.39-1.63l2.26-3.3c.93.64,1.89.92,3.13.92,2.33,0,3.4-1.03,4.88-2.44,1.65-1.58,3.71-3.56,7.65-3.56s6,1.97,7.65,3.55c1.48,1.42,2.56,2.45,4.89,2.45s3.41-1.03,4.89-2.45c1.66-1.58,3.72-3.55,7.65-3.55v4c-2.33,0-3.41,1.03-4.89,2.45-1.66,1.58-3.72,3.55-7.65,3.55Z"/>
        <path class="cls-1" d="m12.54,80.72c-3.94,0-6-1.97-7.65-3.56-1.48-1.42-2.55-2.44-4.88-2.44v-4c3.94,0,6,1.97,7.65,3.56,1.48,1.42,2.55,2.44,4.88,2.44s3.4-1.03,4.88-2.44c1.65-1.58,3.71-3.56,7.65-3.56v4c-2.33,0-3.4,1.03-4.88,2.44-1.65,1.58-3.71,3.56-7.65,3.56Z"/>
      </g>
      <g>
        <g>
          <path class="cls-1" d="m38.32,112.63c-.46-.19-11.23-4.57-15.42-8.23-5.13-4.48-2.75-10.6-2.64-10.85l12.34-28.71,3.67,1.58-12.32,28.67c-.04.1-1.38,3.72,1.58,6.3,3.06,2.67,11.35,6.34,14.29,7.54l-1.5,3.71Z"/>
          <path class="cls-1" d="m38.29,61.72l-3.67-1.58,2.99-6.96c1.17-2.73,4.08-3.87,6.21-4.35-1-5.92,1.58-13.79,2.24-15.31,1-2.33,2.86-6.65,7.54-10.46,3.92-3.19,14.23-7.01,17.28-8.1l1.43-3.34,3.68,1.58-1.78,4.14c-.22.52-.65.92-1.18,1.1-3.58,1.24-13.6,5.03-16.9,7.72-3.92,3.19-5.47,6.79-6.39,8.94-1.07,2.48-3.15,10.73-1.54,14.62.25.6.19,1.29-.16,1.84-.35.55-.95.89-1.6.92-1.38.07-4.47.71-5.14,2.28l-2.99,6.96Z"/>
          <path class="cls-1" d="m55.83,118.17c-.33,0-.66-.02-1.01-.05-5.53-.52-16.13-5.32-16.58-5.52l1.66-3.64c2.89,1.31,11.26,4.8,15.3,5.18,3.92.36,5.61-3.1,5.69-3.25l17.3-40.28c.67-1.56-.98-4.25-1.89-5.3l3.02-2.62c.45.52,4.38,5.22,2.55,9.5l-17.33,40.33c-.13.28-2.65,5.64-8.7,5.64Z"/>
          <path class="cls-1" d="m85.01,60.73l-3.05-2.59c2.41-2.85,4.22-6.13,4.68-7.19.92-2.15,2.47-5.75,2.08-10.79-.32-4.24-4.46-14.12-6.03-17.57-.23-.51-.24-1.1-.02-1.62l1.78-4.15,3.68,1.58-1.44,3.34c1.3,2.96,5.63,13.07,6.01,18.11.46,6.02-1.4,10.35-2.4,12.67-.65,1.52-2.67,5.09-5.3,8.19Z"/>
          <path class="cls-1" d="m86.29,19.62c-.26,0-.53-.05-.79-.16l-12.15-5.22c-.49-.21-.87-.6-1.07-1.1s-.19-1.04.02-1.53l4.47-10.4c.44-1.02,1.62-1.48,2.63-1.05l12.15,5.22c.49.21.87.6,1.07,1.1.2.49.19,1.04-.02,1.53l-4.47,10.4c-.33.76-1.06,1.21-1.84,1.21Zm-9.52-8.27l8.48,3.64,2.89-6.73-8.48-3.64-2.89,6.73Z"/>
        </g>
        <rect class="cls-1" x="46.58" y="81.78" width="27.81" height="4" transform="translate(-40.37 106.27) rotate(-66.75)"/>
        <rect class="cls-1" x="50.15" y="100.17" width="4.87" height="4" transform="translate(-62.05 110.14) rotate(-66.75)"/>
      </g>
    </g>
  </g>
</svg>