<?xml version="1.0" encoding="UTF-8"?>
<svg id="Calque_2" data-name="Calque 2" xmlns="http://www.w3.org/2000/svg" viewBox="0 0 125.36 120.9">
  <defs>
    <style>
      .cls-1 {
        fill: #333;
      }
    </style>
  </defs>
  <g id="Layer_1" data-name="Layer 1">
    <g>
      <path class="cls-1" d="m112.82,105.61c-3.94,0-6-1.97-7.65-3.55-1.48-1.42-2.56-2.45-4.89-2.45s-3.4,1.03-4.88,2.45c-1.65,1.58-3.71,3.55-7.65,3.55s-6-1.97-7.65-3.55c-1.48-1.42-2.55-2.45-4.89-2.45s-3.4,1.03-4.88,2.44c-1.65,1.58-3.71,3.56-7.65,3.56s-5.99-1.97-7.65-3.56c-1.48-1.42-2.55-2.44-4.88-2.44s-3.4,1.03-4.88,2.44c-1.65,1.58-3.71,3.56-7.65,3.56s-6-1.97-7.65-3.56c-1.48-1.42-2.55-2.44-4.88-2.44s-3.4,1.03-4.88,2.44c-1.65,1.58-3.71,3.56-7.65,3.56s-6-1.97-7.65-3.56c-1.48-1.42-2.55-2.44-4.88-2.44v-4c3.94,0,6,1.97,7.65,3.55,1.48,1.42,2.55,2.45,4.89,2.45s3.4-1.03,4.88-2.44c1.65-1.58,3.71-3.56,7.65-3.56s6,1.97,7.65,3.55c1.48,1.42,2.55,2.45,4.88,2.45s3.4-1.03,4.88-2.44c1.65-1.58,3.71-3.56,7.65-3.56s6,1.97,7.65,3.56c1.48,1.42,2.55,2.44,4.88,2.44s3.4-1.03,4.88-2.45c1.65-1.58,3.71-3.55,7.65-3.55s6,1.97,7.65,3.55c1.48,1.42,2.55,2.45,4.89,2.45s3.4-1.03,4.88-2.44c1.65-1.58,3.71-3.56,7.65-3.56s6,1.97,7.65,3.55c1.48,1.42,2.56,2.45,4.89,2.45s3.41-1.03,4.89-2.45c1.66-1.58,3.72-3.55,7.65-3.55v4c-2.33,0-3.41,1.03-4.89,2.45-1.66,1.58-3.72,3.55-7.65,3.55Z"/>
      <path class="cls-1" d="m112.82,120.9c-3.94,0-6-1.97-7.65-3.55-1.48-1.42-2.56-2.45-4.89-2.45s-3.4,1.03-4.88,2.45c-1.65,1.58-3.71,3.55-7.65,3.55s-6-1.97-7.65-3.55c-1.48-1.42-2.55-2.45-4.89-2.45s-3.4,1.03-4.88,2.44c-1.65,1.58-3.71,3.56-7.65,3.56s-5.99-1.97-7.65-3.56c-1.48-1.42-2.55-2.44-4.88-2.44s-3.4,1.03-4.88,2.44c-1.65,1.58-3.71,3.56-7.65,3.56s-6-1.97-7.65-3.56c-1.48-1.42-2.55-2.44-4.88-2.44s-3.4,1.03-4.88,2.44c-1.65,1.58-3.71,3.56-7.65,3.56s-6-1.97-7.65-3.56c-1.48-1.42-2.55-2.44-4.88-2.44v-4c3.94,0,6,1.97,7.65,3.55,1.48,1.42,2.55,2.45,4.89,2.45s3.4-1.03,4.88-2.44c1.65-1.58,3.71-3.56,7.65-3.56s6,1.97,7.65,3.55c1.48,1.42,2.55,2.45,4.88,2.45s3.4-1.03,4.88-2.44c1.65-1.58,3.71-3.56,7.65-3.56s6,1.97,7.65,3.56c1.48,1.42,2.55,2.44,4.88,2.44s3.4-1.03,4.88-2.45c1.65-1.58,3.71-3.55,7.65-3.55s6,1.97,7.65,3.55c1.48,1.42,2.55,2.45,4.89,2.45s3.4-1.03,4.88-2.44c1.65-1.58,3.71-3.56,7.65-3.56s6,1.97,7.65,3.55c1.48,1.42,2.56,2.45,4.89,2.45s3.41-1.03,4.89-2.45c1.66-1.58,3.72-3.55,7.65-3.55v4c-2.33,0-3.41,1.03-4.89,2.45-1.66,1.58-3.72,3.55-7.65,3.55Z"/>
      <g>
        <g>
          <path class="cls-1" d="m74.71,46.41s-.05,0-.07,0l-11.19-.41c-1.09-.04-2.67-.37-3.67-.78l-20.71-8.27c-.97-.39-2.33-1.17-3.16-1.81l-9.33-7.22c-.46-.35-1.45-.83-2-.97l-3.28-.82h0c-.93-.23-1.71-.82-2.19-1.64-.48-.83-.6-1.79-.35-2.71l4.04-14.47c.26-.93.87-1.69,1.71-2.14.84-.45,1.81-.54,2.73-.25l3.85,1.23c.47.15,1.43.18,1.91.06L54.66.86c1.32-.33,3.14-.09,4.32.57l19.2,10.61c.98.54,2.24,1.63,2.93,2.52l4.16,5.39c.69.9,1.41,2.42,1.67,3.52l1.79,7.71c.26,1.11.27,2.8.03,3.92-.18.82-.79,1.88-1.97,2.38-1.27.54-2.76.3-4.44-.73-3.63-2.22-4.54-7.46-4.63-8.05-.08-.5-.48-1.43-.8-1.83l-2.93-3.72c-.23-.29-.94-.72-1.3-.79l-9.74-1.86c-.92-.18-2.16-.62-3.08-1.09l-1.36,7.61c-.1.54-.04,1.59.11,2.12h0s.92,2.2,5.66,4.9c1.88.15,8.2.8,11.09,2.89,1.19.86,2.58,2.07,2.84,3.85.27,1.85-.79,3.41-1.91,4.86-.38.49-.97.78-1.58.78ZM22.73,22.38l2.8.7c1.09.27,2.59,1,3.48,1.69l9.33,7.22c.53.41,1.58,1.01,2.2,1.26l20.71,8.27c.58.23,1.71.47,2.34.49l10.13.37c.47-.69.52-.94.52-1.03h0s-.1-.37-1.23-1.18c-1.73-1.25-6.72-2-9.46-2.18-.29-.02-.58-.1-.84-.25-6.53-3.6-7.76-6.87-7.94-7.48-.33-1.13-.42-2.79-.21-3.95l1.59-8.89c.19-1.06.82-1.9,1.72-2.32.91-.41,1.96-.34,2.88.21l.71.42c.53.32,1.62.73,2.23.84l9.74,1.86c1.31.25,2.87,1.19,3.69,2.24l2.93,3.72c.75.95,1.43,2.51,1.61,3.7.17,1.09,1.01,4.18,2.76,5.25.2.12.36.2.49.27.03-.53,0-1.15-.09-1.52l-1.79-7.71c-.13-.55-.59-1.53-.94-1.98l-4.16-5.39c-.36-.47-1.18-1.18-1.7-1.46l-19.2-10.61c-.31-.17-1.09-.28-1.43-.19l-21.68,5.35c-1.19.29-2.91.24-4.08-.13l-3.36-1.07-3.76,13.5Z"/>
          <path class="cls-1" d="m19.58,28.27c-.13,0-.26-.01-.38-.04l-9.38-1.83.77-3.93,7.57,1.47,5.19-18.61-7.26-1.41.77-3.93,9.38,1.83c.55.11,1.03.44,1.32.91.29.47.37,1.05.23,1.59l-6.26,22.48c-.25.88-1.04,1.46-1.92,1.46Z"/>
        </g>
        <path class="cls-1" d="m62.75,64.13c-.98,0-2.47-.36-5.29-1.06-1.55-.38-3.87-.96-4.52-.98-.68.08-1.34-.11-1.89-.55-1.12-.91-1.77-3.17-1.93-6.72-.02-.49.14-.97.44-1.35l4.26-5.27c.69-.85,1.94-.99,2.8-.31l6.17,4.91-2.49,3.13-4.61-3.67-2.52,3.12c.09,1.06.25,2.12.42,2.75.99.12,2.43.46,4.84,1.05,1.23.3,2.97.74,3.86.88.12-.11.25-.25.39-.39l-.48-.97,3.58-1.78,1.09,2.2c.36.73.25,1.6-.29,2.21-.37.42-1.62,1.82-2.43,2.37-.39.27-.8.4-1.4.4Zm-9.71-2.05s-.03,0-.05,0c.02,0,.03,0,.05,0Zm-.65-3.95h0,0Z"/>
        <path class="cls-1" d="m82.82,76.05c-.14,0-.29-.02-.43-.05l-6.73-1.47c-.82-.18-1.44-.85-1.55-1.68l-.61-4.41,3.96-.55.42,3.02,4.81,1.05,4.82-1.69-1.94-4.75-5.49-2.2-2.39,3.24-3.22-2.38,3.3-4.48c.54-.73,1.5-1.01,2.35-.67l7.71,3.08c.5.2.9.6,1.11,1.1l3.06,7.49c.21.51.2,1.08-.03,1.58-.22.5-.65.89-1.16,1.07l-7.34,2.57c-.21.07-.44.11-.66.11Z"/>
        <path class="cls-1" d="m66.19,85.36c-1.08,0-3.07-.26-7.11-1.13-.73-.16-1.31-.71-1.51-1.43l-1.4-5.15c-.24-.88.15-1.81.94-2.26l6.39-3.66,1.99,3.47-5.05,2.89.67,2.48c2.02.41,4.14.76,4.93.8.84-.4,2.63-1.17,4.11-1.8l-1.78-3.66,3.6-1.75,2.7,5.55c.24.49.27,1.06.07,1.58-.19.51-.59.93-1.1,1.14-2.64,1.11-5.63,2.4-6.05,2.62-.27.15-.56.31-1.4.31Z"/>
      </g>
    </g>
  </g>
</svg>