<?xml version="1.0" encoding="UTF-8"?>
<svg id="Calque_2" data-name="Calque 2" xmlns="http://www.w3.org/2000/svg" viewBox="0 0 116.81 120.29">
  <defs>
    <style>
      .cls-1 {
        fill: #333;
      }
    </style>
  </defs>
  <g id="Layer_1" data-name="Layer 1">
    <g>
      <g>
        <path class="cls-1" d="m82.37,84.13c-16.7,0-34.44-4.71-34.44-13.45h4c0,3.95,11.58,9.45,30.44,9.45s30.44-5.5,30.44-9.45c0-2.82-5.95-6.62-17.32-8.45l.63-3.95c12.95,2.08,20.68,6.72,20.68,12.4,0,8.74-17.75,13.45-34.44,13.45Z"/>
        <path class="cls-1" d="m55.12,75.93c-3.01,0-5.28-.83-6.45-2.7-1.87-3.02-.19-7.56,4.85-13.14,4.44-4.91,11.07-10.21,18.66-14.9,7.59-4.7,15.29-8.27,21.67-10.05,7.24-2.02,12.05-1.49,13.92,1.53h0c3.96,6.41-8.83,18.96-23.51,28.04-10.38,6.42-21.89,11.22-29.14,11.22Zm46.21-38.01c-1.48,0-3.56.28-6.4,1.07-6.03,1.68-13.36,5.09-20.64,9.6-7.28,4.51-13.61,9.54-17.8,14.18-4.5,4.98-4.85,7.64-4.41,8.35,1.34,2.16,13.17.65,30.08-9.82,16.92-10.47,23.55-20.38,22.21-22.54-.25-.4-1.15-.85-3.04-.85Z"/>
        <path class="cls-1" d="m82.37,120.29c-16.7,0-34.44-4.71-34.44-13.45v-36.15h4c0,3.95,11.58,9.45,30.44,9.45s30.44-5.5,30.44-9.45h4v36.15c0,8.74-17.75,13.45-34.44,13.45Zm-30.44-43.05v29.6c0,3.95,11.58,9.45,30.44,9.45s30.44-5.5,30.44-9.45v-29.6c-6.18,4.52-18.58,6.9-30.44,6.9s-24.26-2.38-30.44-6.9Z"/>
        <path class="cls-1" d="m82.37,105.26c-8.11,0-15.95-1.05-22.06-2.96l1.19-3.82c5.74,1.79,13.15,2.78,20.87,2.78,7.23,0,14.28-.88,19.86-2.47l1.1,3.85c-6.01,1.72-13.25,2.63-20.96,2.63Z"/>
      </g>
      <g>
        <path class="cls-1" d="m31.11,21.96c-12.11,0-24.98-3.85-24.98-10.98S19,0,31.11,0s24.98,3.85,24.98,10.98-12.87,10.98-24.98,10.98Zm0-17.96c-12.81,0-20.98,4.13-20.98,6.98s8.17,6.98,20.98,6.98,20.98-4.13,20.98-6.98-8.17-6.98-20.98-6.98Z"/>
        <path class="cls-1" d="m30.12,38.3c-7.06,0-13.75-.95-18.84-2.68l1.29-3.79c4.68,1.59,10.92,2.47,17.55,2.47,5.88,0,11.59-.71,16.06-2.01l1.11,3.84c-4.83,1.39-10.93,2.16-17.17,2.16Z"/>
        <path class="cls-1" d="m.11,94.44c-.01-2.66-.24-65.19,0-70.13.27-5.41,5.8-12.74,6.43-13.56l3.17,2.44c-1.5,1.95-5.42,7.79-5.6,11.32-.24,4.83,0,69.26,0,69.91l-4,.02Z"/>
        <path class="cls-1" d="m62.21,47.56h-4c0-13.77-.03-21.52-.11-23.05-.18-3.53-4.1-9.37-5.6-11.32l3.17-2.44c.63.82,6.16,8.15,6.43,13.56.08,1.62.12,9.23.11,23.25Z"/>
        <path class="cls-1" d="m31.11,109.9C13.73,109.9.11,103.1.11,94.43h4c0,5.42,11.09,11.47,27,11.47,4.02,0,7.91-.39,11.53-1.15l.82,3.91c-3.9.82-8.06,1.24-12.36,1.24Z"/>
      </g>
    </g>
  </g>
</svg>