<?xml version="1.0" encoding="UTF-8"?>
<svg id="Calque_2" data-name="Calque 2" xmlns="http://www.w3.org/2000/svg" viewBox="0 0 59.95 59.44">
  <defs>
    <style>
      .cls-1 {
        fill: none;
        stroke: #394553;
        stroke-linecap: round;
        stroke-linejoin: round;
        stroke-width: 2.5px;
      }
    </style>
  </defs>
  <g id="Calque_2-2" data-name="Calque 2">
    <g>
      <path class="cls-1" d="m53.27,36.62c3.41,2.24,5.42,4.99,5.42,7.96,0,7.52-12.86,13.61-28.72,13.61S1.25,52.1,1.25,44.58c0-3.02,2.08-5.81,5.59-8.07"/>
      <path class="cls-1" d="m35.94,2.43c5.73,2.57,13.12,5.66,13.12,8.61,0,4.71-8.54,8.53-19.08,8.53s-19.08-3.82-19.08-8.53c0-2.98,8.26-6.25,13.65-8.57l1.2-.44c1.25-.43,2.79-.78,4.57-.78"/>
      <g>
        <path class="cls-1" d="m10.93,10.67l-4.51,29.74c0,2.07,1.19,4.02,3.27,5.68"/>
        <path class="cls-1" d="m48.96,10.45l4.56,29.97c0,6.16-10.54,11.16-23.55,11.16-4.45,0-8.62-.59-12.17-1.61"/>
      </g>
      <path class="cls-1" d="m30.33,1.25c3.93,0,7.12,1.43,7.12,3.18s-3.19,3.18-7.12,3.18c-1.16,0-2.25-.12-3.21-.34"/>
    </g>
  </g>
</svg>