<?xml version="1.0" encoding="UTF-8"?>
<svg id="Calque_2" data-name="Calque 2" xmlns="http://www.w3.org/2000/svg" viewBox="0 0 58.86 72.88">
  <defs>
    <style>
      .cls-1, .cls-2, .cls-3 {
        fill: none;
      }

      .cls-1, .cls-2, .cls-3, .cls-4, .cls-5 {
        stroke: #394553;
        stroke-width: 2.5px;
      }

      .cls-1, .cls-5 {
        stroke-miterlimit: 10;
      }

      .cls-2, .cls-3, .cls-4 {
        stroke-linejoin: round;
      }

      .cls-3, .cls-4 {
        stroke-linecap: round;
      }

      .cls-4 {
        fill: #fff;
      }

      .cls-5 {
        fill: #2c333d;
      }
    </style>
  </defs>
  <g id="Calque_2-2" data-name="Calque 2">
    <g>
      <path class="cls-1" d="m5.13,49.75l1.45-23.31c.14-2.3.67-4.19,1.52-6.25"/>
      <path class="cls-1" d="m47.01,15.2c2.37,3.21,3.87,7.09,4.08,11.25l1.21,23.53"/>
      <path class="cls-2" d="m36.7,40.99c-3.68,5.58-9.94,7.94-13.98,5.28-4.04-2.66-4.33-9.35-.65-14.93,3.68-5.58,9.94-7.94,13.98-5.28,4.04,2.67,4.33,9.35.64,14.93Z"/>
      <path class="cls-3" d="m32.43,31.66s.25,3.62-2.81,4.25c-3.38.69-3.18,4.82-3.18,4.82"/>
      <path class="cls-3" d="m50.28,5.12c.34,6.05,3.74,8.96,3.74,8.96,0,0-10.52,2.81-24.85,3.25h-.54c-14.33-.43-24.85-3.25-24.85-3.25,0,0,3.4-2.91,3.74-8.96"/>
      <path class="cls-4" d="m50.31,5.13c0,2.14-9.58,3.88-21.39,3.88S7.52,7.27,7.52,5.13,17.1,1.25,28.91,1.25s21.39,1.74,21.39,3.88Z"/>
      <path class="cls-5" d="m39.24,71.62c-.13-.02-.46-.09-.58-.3-.2-.35.13-1.21,1.1-1.76.49-.28,1.04-.4,1.49-.34.13.02.46.09.58.3.2.35-.13,1.21-1.1,1.76-.49.28-1.04.4-1.5.34Z"/>
      <path class="cls-3" d="m47.18,50.61l8.37-.75s2.05,3.04,2.05,7.8H1.25c0-4.75,2.05-7.8,2.05-7.8l8.37.75"/>
      <path class="cls-5" d="m33.55,66.62c-.14,0-.47-.02-.62-.22-.25-.32-.04-1.22.84-1.9.45-.35.97-.54,1.43-.54.14,0,.47.02.62.22.25.32.04,1.22-.84,1.9-.45.35-.97.54-1.43.54Z"/>
      <path class="cls-5" d="m51.09,66.64c0,.14-.04.47-.24.61-.33.23-1.22,0-1.87-.91-.33-.46-.51-.99-.49-1.45,0-.14.04-.47.24-.61.33-.23,1.22,0,1.87.91.33.46.51.99.49,1.45Z"/>
      <path class="cls-5" d="m28.73,7.79c-.29-1.08-1.09-1.78-1.48-1.68-.24.06-.39.36-.44.49-.18.42-.2.98-.05,1.53,0,0,2.12.21,1.98-.34Z"/>
      <path class="cls-5" d="m37.89,8.33c.57-.96.42-1.87.07-2.07-.21-.13-.53-.02-.66.03-.43.17-1.17,1.13-1.46,1.62,0,0,1.75.92,2.04.43Z"/>
    </g>
  </g>
</svg>