<?xml version="1.0" encoding="UTF-8"?>
<svg id="Calque_2" data-name="Calque 2" xmlns="http://www.w3.org/2000/svg" viewBox="0 0 124.5 129.29">
  <defs>
    <style>
      .cls-1 {
        fill: #333;
      }
    </style>
  </defs>
  <g id="Layer_1" data-name="Layer 1">
    <g>
      <g>
        <path class="cls-1" d="m41.48,54.41c-2.31,0-4.12-.77-5.89-1.52-1.52-.65-3.09-1.31-5.16-1.58-2.6-.33-3.18.02-4.23.66-1.95,1.19-4.04,2.17-9.8,2.06C4.44,53.83.26,40.73.09,40.17c-.14-.45-.11-.94.07-1.37,3.12-7.33,12.26-13.36,23.86-15.75l.81,3.92c-11.77,2.42-18.37,8.21-20.67,12.72.93,2.42,4.51,10.21,12.31,10.34,5.07.08,6.45-.75,7.65-1.48,1.65-1.01,3.11-1.68,6.82-1.21,2.62.34,4.53,1.15,6.22,1.87,2.99,1.27,4.97,2.11,9.89-.56,3.36-1.82,5.63-3.61,7.64-5.19,2.31-1.82,4.26-3.36,6.78-3.97-1.87-4.08-7.39-12.41-21.54-13.42-1.43-.1-2.87-.15-4.27-.16v-4c1.5,0,3.03.06,4.56.17,21.4,1.53,25.92,18.47,25.97,18.64.15.61.01,1.25-.38,1.74-.39.49-1,.76-1.62.75-2.49-.1-4.03,1.04-7.01,3.39-2.03,1.6-4.55,3.58-8.21,5.57-3.08,1.67-5.46,2.24-7.47,2.24Z"/>
        <path class="cls-1" d="m34.29,107.79c-3.67,0-6.33-1.49-8.68-2.81-2.64-1.48-4.72-2.65-7.92-1.77-7.81,2.15-12.85,0-13.06-.1-.65-.29-1.1-.89-1.18-1.6-.08-.7.22-1.4.78-1.83.13-.09,12.56-9.64,14.74-23.08,2.19-13.51-4.14-23.38-4.21-23.48l3.35-2.19c.3.45,7.25,11.29,4.81,26.31-1.73,10.64-8.87,18.84-13.11,22.87,1.74.11,4.06-.01,6.82-.77,4.78-1.31,8.05.52,10.94,2.14,2.11,1.18,4.1,2.3,6.73,2.3,8.63,0,15.66-2.37,19.38-3.95-16.42-13.85-10.96-46.69-10.71-48.15l3.94.68c-.06.35-5.86,35.25,11.71,46.12.6.37.96,1.03.95,1.73-.01.7-.39,1.35-1,1.7-.41.24-10.28,5.86-24.27,5.86Z"/>
        <path class="cls-1" d="m37.56,118.11c-1.56,0-2.67-.42-3.79-.94-.75-.35-1.29-.6-2.28-.6-1.12,0-1.29.1-1.54.26-1.21.76-2.49,1.28-8.01,1.06-9.92-.4-17.94-15.04-18.27-15.66l3.52-1.9c2,3.69,8.57,13.31,14.92,13.56,4.71.19,5.34-.21,5.72-.44.76-.48,1.57-.88,3.67-.88,1.88,0,3.04.54,3.97.98,1.32.62,2.46,1.15,7.46-.84,8.3-3.3,13.51-8.27,12.67-12.09l3.91-.85c1.3,5.96-4.63,12.49-15.11,16.66-3.12,1.24-5.23,1.69-6.84,1.69Z"/>
        <path class="cls-1" d="m27.8,31.74c-.1-.94-2.3-23.09,13.85-31.74l1.89,3.53c-13.8,7.39-11.79,27.58-11.76,27.79l-3.98.43Z"/>
        <path class="cls-1" d="m30.32,38.6c-5.75,0-10.42-1.5-13.89-4.45l-.16-.13c.1.08.18.12.24.15l1.79-3.58c.28.14.47.31.72.52,2.94,2.5,7.11,3.66,12.4,3.48,7.99-.29,9.29-2.88,9.3-2.91-.04.08-.04.13-.04.13l3.83,1.14c-.26.87-2.1,5.25-12.95,5.64-.42.02-.84.02-1.25.02Z"/>
      </g>
      <g>
        <path class="cls-1" d="m55.16,89.18l-1.79-3.58c13.37-6.67,15.08-28.58,15.28-35.76-3.74.95-11.31,4.35-13.69,16.36-.66,3.33-1.98,6.18-3.91,8.45l-3.05-2.59c1.49-1.75,2.51-3.98,3.03-6.63,3.76-18.98,19.38-19.94,19.53-19.94.53-.03,1.06.17,1.45.53.39.36.62.87.64,1.41.04,1.33.78,32.64-17.51,41.76Z"/>
        <path class="cls-1" d="m98.12,129.29c-2.62,0-5.5-.21-8.66-.67-25.77-3.78-27.67-20.52-29.5-36.71-.35-3.05-.7-6.2-1.22-9.21l3.94-.68c.54,3.12.9,6.33,1.25,9.44,1.81,16.03,3.38,29.87,26.1,33.2,20.42,2.99,27.38-5.25,29.58-9.55-14.9-.35-25.91-4.11-32.76-11.18-9.92-10.25-9.36-25.04-8.95-35.84.04-.95.07-1.88.1-2.76.43-14.73-7.22-15.83-7.55-15.87l.4-3.98c.48.04,11.7,1.31,11.15,19.97-.03.89-.06,1.83-.1,2.79-.38,10.08-.9,23.89,7.83,32.91,6.5,6.71,17.55,10.08,32.76,9.99h.01c.6,0,1.17.27,1.55.74.38.47.53,1.09.41,1.68-.04.18-3.62,15.73-26.33,15.74Z"/>
        <path class="cls-1" d="m87.36,92.54c-2.5,0-4.84-.36-6.86-1.18l1.5-3.71c6.36,2.58,17.99-.83,25.12-5.47,4.27-2.78,5.83-5.23,5.88-6.6.08-2.49-.83-3.94-2.88-4.58-1.07-.33-2.35-.12-3.52.59-11.84,7.17-27.1-2.59-27.74-3.01l2.18-3.35c.14.09,13.8,8.8,23.49,2.94,2.15-1.3,4.62-1.66,6.78-.99,2.2.69,5.88,2.7,5.69,8.52-.13,4.07-4.26,7.59-7.7,9.83-5.99,3.89-14.64,7.01-21.94,7.01Z"/>
        <path class="cls-1" d="m78.85,53.23l-3.33-2.21,4.27-6.44c.32-.49.26-.97.2-1.21-.07-.24-.26-.69-.78-.95l-5.1-2.47c-.38-.19-.81-.2-1.2-.04-.39.16-.69.47-.84.86q-3.31,9.01-4.44,9.38l-1.26-3.8c-.72.24-1.02.78-1.05.84.1-.19.61-1.3,3-7.8.53-1.45,1.66-2.61,3.09-3.19,1.43-.58,3.05-.52,4.45.15l5.1,2.47c1.43.69,2.48,1.96,2.9,3.49.42,1.53.15,3.16-.72,4.48l-4.27,6.44Z"/>
      </g>
    </g>
  </g>
</svg>