<?xml version="1.0" encoding="UTF-8"?>
<svg id="Calque_2" data-name="Calque 2" xmlns="http://www.w3.org/2000/svg" viewBox="0 0 118.7 110.49">
  <defs>
    <style>
      .cls-1 {
        fill: #333;
      }
    </style>
  </defs>
  <g id="Layer_1" data-name="Layer 1">
    <g>
      <g>
        <rect class="cls-1" x="114.7" y="19.17" width="4" height="31.77"/>
        <path class="cls-1" d="m116.61,83.47h-25.45v-4h23.46l.09-28.54h4v6.26l-.09,24.28c0,1.1-.9,1.99-2,1.99Z"/>
        <path class="cls-1" d="m61.38,35.79h-4V2c0-1.1.9-2,2-2h40.16v4h-38.16v31.79Z"/>
        <path class="cls-1" d="m116.61,21.17h-17.07c-1.1,0-2-.9-2-2V2.1c0-.81.49-1.54,1.23-1.85.75-.31,1.61-.14,2.18.43l17.07,17.07c.57.57.74,1.43.43,2.18-.31.75-1.04,1.23-1.85,1.23Zm-15.07-4h10.25l-10.25-10.25v10.25Z"/>
      </g>
      <g>
        <path class="cls-1" d="m47.96,110.49c-.19,0-.39-.03-.58-.09l-35.63-10.75c-.84-.25-1.42-1.03-1.42-1.91v-32.26c0-.63.3-1.23.81-1.61.51-.38,1.17-.49,1.77-.31l35.63,10.75c.84.25,1.42,1.03,1.42,1.91v32.26c0,.63-.3,1.23-.81,1.61-.35.26-.77.39-1.19.39Zm-33.63-14.24l31.63,9.55v-28.08l-31.63-9.55v28.08Z"/>
        <path class="cls-1" d="m47.96,110.49c-.42,0-.84-.14-1.19-.39-.51-.38-.81-.97-.81-1.61v-32.26c0-.88.58-1.66,1.42-1.91l35.63-10.75c.61-.18,1.26-.07,1.77.31.51.38.81.97.81,1.61v32.26c0,.88-.58,1.66-1.42,1.91l-35.63,10.75c-.19.06-.38.09-.58.09Zm2-32.77v28.08l31.63-9.55v-28.08l-31.63,9.55Z"/>
        <path class="cls-1" d="m46.25,77.27l-9.93-16.31-29.89-9.02,7.61,12.49-3.42,2.08L.29,49.56c-.43-.71-.38-1.61.13-2.26.51-.66,1.37-.93,2.16-.69l35.63,10.75c.47.14.87.45,1.13.87l10.33,16.96-3.42,2.08Z"/>
        <path class="cls-1" d="m49.66,77.27l-3.42-2.08,10.33-16.96c.26-.42.66-.73,1.13-.87l35.63-10.75c.79-.24,1.65.03,2.16.69.51.66.56,1.56.13,2.26l-10.33,16.96-3.42-2.08,7.61-12.49-29.89,9.02-9.93,16.31Z"/>
        <path class="cls-1" d="m55.78,64.46l-7.8-2.12-7.8,2.12-1.05-3.86,8.3-2.26c.34-.09.75-.09,1.09,0l8.3,2.26-1.05,3.86Z"/>
        <path class="cls-1" d="m46.19,61.22l-9.55-17.78-28.64,8.63-1.15-3.83,30.2-9.11c.91-.27,1.89.13,2.34.97l10.33,19.22-3.52,1.89Z"/>
        <path class="cls-1" d="m49.72,61.22l-3.52-1.89,10.33-19.22c.45-.84,1.43-1.24,2.34-.97l30.2,9.11-1.16,3.83-28.63-8.64-9.55,17.78Z"/>
      </g>
    </g>
  </g>
</svg>