<?xml version="1.0" encoding="UTF-8"?>
<svg id="Calque_2" data-name="Calque 2" xmlns="http://www.w3.org/2000/svg" viewBox="0 0 117.96 117.14">
  <defs>
    <style>
      .cls-1 {
        fill: #333;
      }
    </style>
  </defs>
  <g id="Layer_1" data-name="Layer 1">
    <g>
      <g>
        <g>
          <path class="cls-1" d="m70.09,56.27l-3.7-1.52,3.21-7.78c.98-2.39,3.42-3.47,5.29-3.96-.84-5.18,1.26-11.94,1.8-13.26.85-2.06,2.43-5.89,6.5-9.3,3.39-2.84,12.03-6.21,14.9-7.28l1.16-2.82,3.7,1.52-1.5,3.63c-.21.52-.64.93-1.17,1.12-3.09,1.12-11.72,4.54-14.52,6.89-3.32,2.79-4.6,5.9-5.37,7.76-.88,2.14-2.57,9.25-1.15,12.54.26.6.21,1.29-.14,1.84-.34.55-.93.91-1.59.95-1.1.07-3.71.64-4.22,1.89l-3.2,7.78Z"/>
          <path class="cls-1" d="m86.41,103.65c-.25,0-.5,0-.77-.03-1.67-.13-4-.7-6.94-1.68l1.27-3.8c3.28,1.09,5.07,1.41,5.99,1.48,3.29.28,4.63-2.7,4.64-2.73l14.54-35.28c.52-1.26-.93-3.49-1.67-4.31-.44-.49-.61-1.15-.46-1.79.15-.64.6-1.16,1.2-1.4,3.33-1.34,7.14-7.57,8.02-9.71.77-1.86,2.05-4.98,1.66-9.29-.33-3.65-4.05-12.16-5.45-15.12-.24-.51-.26-1.1-.04-1.62l1.5-3.63,3.7,1.52-1.16,2.82c1.28,2.79,5.04,11.26,5.45,15.66.48,5.3-1.09,9.12-1.94,11.18-.54,1.32-3.81,7.59-8.06,10.68.99,1.67,1.95,4.15.97,6.54l-14.55,35.32c-.11.26-2.34,5.19-7.87,5.19Z"/>
          <path class="cls-1" d="m111.74,17.49c-.26,0-.52-.05-.76-.15l-10.64-4.38c-1.02-.42-1.51-1.59-1.09-2.61l3.75-9.11c.42-1.02,1.59-1.51,2.61-1.09l10.64,4.38c.49.2.88.59,1.08,1.08.2.49.2,1.04,0,1.53l-3.75,9.11c-.2.49-.59.88-1.08,1.08-.25.1-.51.15-.77.15Zm-8.03-7.47l6.94,2.86,2.23-5.41-6.94-2.86-2.23,5.41Z"/>
        </g>
        <rect class="cls-1" x="78.04" y="71.4" width="24.21" height="4" transform="translate(-12.06 128.79) rotate(-67.61)"/>
        <rect class="cls-1" x="81.38" y="87.51" width="4.24" height="4" transform="translate(-31.06 132.63) rotate(-67.61)"/>
      </g>
      <g>
        <path class="cls-1" d="m27.13,117.14c-1.5,0-2.98-.36-4.34-1.08-2.21-1.16-3.83-3.11-4.57-5.5L.28,52.74c-1.01-3.26.82-6.75,4.08-7.76l5.52-1.71c3.27-1.01,6.75.82,7.76,4.08l4.56,14.69c.5,1.6,1.59,2.92,3.08,3.7,1.49.78,3.19.94,4.79.44l12.33-3.83c1.6-.5,2.92-1.59,3.7-3.08.78-1.49.94-3.19.44-4.79l-4.56-14.69c-.49-1.58-.34-3.26.44-4.73.77-1.47,2.07-2.54,3.65-3.03l5.52-1.71c3.26-1.02,6.75.82,7.76,4.08h0l17.94,57.82c.74,2.38.51,4.91-.66,7.12-1.16,2.21-3.11,3.83-5.5,4.57l-41.22,12.79c-.91.28-1.85.42-2.78.42ZM11.72,46.99c-.22,0-.43.03-.65.1l-5.52,1.71c-1.16.36-1.81,1.59-1.45,2.75l17.94,57.82c.42,1.36,1.35,2.48,2.61,3.14,1.26.66,2.71.8,4.07.37l41.23-12.79c1.36-.42,2.48-1.35,3.14-2.61.66-1.26.8-2.71.37-4.07l-17.94-57.82c-.36-1.16-1.59-1.81-2.75-1.45l-5.52,1.71c-1.16.36-1.81,1.59-1.45,2.75l4.56,14.69c.81,2.62.56,5.41-.72,7.84-1.28,2.43-3.43,4.22-6.05,5.03l-12.33,3.83c-2.62.81-5.41.56-7.84-.72-2.43-1.28-4.22-3.43-5.03-6.05l-4.56-14.69c-.29-.94-1.16-1.55-2.1-1.55Z"/>
        <rect class="cls-1" x="59.28" y="65.42" width="4" height="24.87" transform="translate(-20.32 21.65) rotate(-17.24)"/>
      </g>
    </g>
  </g>
</svg>